<?xml version="1.0" encoding="UTF-8"?>
<svg id="Layer_1" data-name="Layer 1" xmlns="http://www.w3.org/2000/svg" viewBox="0 0 100 100">
  <defs>
    <style>
      .cls-1 {
        fill: #000;
        stroke-width: 0px;
      }
    </style>
  </defs>
  <path class="cls-1" d="M50,12.5c-20.71,0-37.5,16.79-37.5,37.5s16.79,37.5,37.5,37.5,37.5-16.79,37.5-37.5S70.71,12.5,50,12.5ZM68.2,65.54c.73.73.73,1.92,0,2.66s-1.93.73-2.66,0l-15.54-15.54-15.54,15.54c-.73.73-1.93.73-2.66,0-.73-.73-.73-1.92,0-2.66l15.54-15.54-15.54-15.54c-.73-.73-.73-1.92,0-2.66.73-.73,1.93-.73,2.66,0l15.54,15.54,15.54-15.54c.73-.73,1.93-.73,2.66,0s.73,1.92,0,2.66l-15.54,15.54,15.54,15.54Z"/>
</svg>