<?xml version="1.0" encoding="UTF-8"?>
<svg id="Layer_1" data-name="Layer 1" xmlns="http://www.w3.org/2000/svg" viewBox="0 0 100 100">
  <defs>
    <style>
      .cls-1 {
        fill: #000;
        stroke-width: 0px;
      }
    </style>
  </defs>
  <path class="cls-1" d="M50,12.5c-20.71,0-37.5,16.79-37.5,37.5s16.79,37.5,37.5,37.5,37.5-16.79,37.5-37.5S70.71,12.5,50,12.5ZM60.65,60.44c-1.46,1.46-3.84,1.46-5.3,0l-7.85-7.85c-.74-.74-1.1-1.72-1.09-2.69,0-.01,0-.02,0-.04v-21.67c0-2.07,1.68-3.75,3.75-3.75h0c2.07,0,3.75,1.68,3.75,3.75v20.19l6.75,6.75c1.46,1.46,1.46,3.84,0,5.3Z"/>
</svg>