<?xml version="1.0" encoding="UTF-8"?>
<svg id="Layer_1" data-name="Layer 1" xmlns="http://www.w3.org/2000/svg" viewBox="0 0 100 100">
  <defs>
    <style>
      .cls-1 {
        fill: #000;
        stroke-width: 0px;
      }
    </style>
  </defs>
  <path class="cls-1" d="M83.75,31.25h-14.18c1.79-2,2.9-4.62,2.9-7.5,0-6.19-5.06-11.25-11.25-11.25s-10.9,4.74-11.22,10.65c-.32-5.91-5.24-10.65-11.22-10.65s-11.25,5.06-11.25,11.25c0,2.88,1.1,5.5,2.9,7.5h-14.18c-2.07,0-3.75,1.68-3.75,3.75v11.25c0,2.07,1.68,3.75,3.75,3.75h30.04v-18.75h7.42v18.75h30.04c2.07,0,3.75-1.68,3.75-3.75v-11.25c0-2.07-1.68-3.75-3.75-3.75ZM46.28,31.19s-.03.06-.06.06h-7.45c-4.12,0-7.49-3.38-7.49-7.5s3.37-7.5,7.5-7.5,7.5,3.37,7.5,7.5v7.44ZM61.23,31.25h-7.45s-.06-.03-.06-.06v-7.44c0-4.12,3.37-7.5,7.5-7.5s7.5,3.37,7.5,7.5-3.37,7.49-7.49,7.5Z"/>
  <path class="cls-1" d="M16.25,76.25c0,6.21,5.04,11.25,11.25,11.25h18.79v-33.58h-30.04v22.33Z"/>
  <path class="cls-1" d="M72.5,87.5c6.21,0,11.25-5.04,11.25-11.25v-22.33h-30.04v33.58h18.79Z"/>
</svg>