<?xml version="1.0" encoding="UTF-8"?>
<svg id="Layer_1" data-name="Layer 1" xmlns="http://www.w3.org/2000/svg" viewBox="0 0 100 100">
  <defs>
    <style>
      .cls-1 {
        fill: #000;
        stroke-width: 0px;
      }
    </style>
  </defs>
  <path class="cls-1" d="M72.5,12.5H23.75c-2.07,0-3.75,1.68-3.75,3.75v7.5c0,2.07,1.68,3.75,3.75,3.75h0c2.07,0,3.75-1.68,3.75-3.75v-3.75s18.75,0,18.75,0v60h-3.75c-2.07,0-3.75,1.68-3.75,3.75h0c0,2.07,1.68,3.75,3.75,3.75h3.75s7.5,0,7.5,0h3.75c2.07,0,3.75-1.68,3.75-3.75h0c0-2.07-1.68-3.75-3.75-3.75h-3.75V20s18.75,0,18.75,0v3.75c0,2.07,1.68,3.75,3.75,3.75h0c2.07,0,3.75-1.68,3.75-3.75v-3.75s0-3.75,0-3.75c0-2.07-1.68-3.75-3.75-3.75h-3.75Z"/>
</svg>