<?xml version="1.0" encoding="UTF-8"?>
<svg id="Layer_1" data-name="Layer 1" xmlns="http://www.w3.org/2000/svg" viewBox="0 0 100 100">
  <defs>
    <style>
      .cls-1 {
        fill: #000;
        stroke-width: 0px;
      }
    </style>
  </defs>
  <path class="cls-1" d="M50,87.5c-20.71,0-37.5-16.79-37.5-37.5S29.29,12.5,50,12.5s37.5,16.79,37.5,37.5-16.79,37.5-37.5,37.5ZM48.13,66.5c0,1.04.84,1.87,1.87,1.87,1.04,0,1.87-.84,1.87-1.87v-22.5c0-1.04-.84-1.87-1.87-1.87s-1.87.84-1.87,1.87v22.5ZM50,30.96c-1.46,0-2.64,1.18-2.64,2.64s1.18,2.64,2.64,2.64,2.64-1.18,2.64-2.64-1.18-2.64-2.64-2.64Z"/>
</svg>