<?xml version="1.0" encoding="UTF-8"?>
<svg id="Layer_1" data-name="Layer 1" xmlns="http://www.w3.org/2000/svg" viewBox="0 0 100 100">
  <defs>
    <style>
      .cls-1 {
        fill: #000;
        stroke-width: 0px;
      }
    </style>
  </defs>
  <path class="cls-1" d="M76.25,12.5H23.75c-6.21,0-11.25,5.04-11.25,11.25v52.5c0,6.21,5.04,11.25,11.25,11.25h52.5c6.21,0,11.25-5.04,11.25-11.25V23.75c0-6.21-5.04-11.25-11.25-11.25ZM68.2,65.54c.73.73.73,1.93,0,2.66-.73.73-1.93.73-2.66,0l-15.54-15.54-15.54,15.54c-.73.73-1.93.73-2.66,0s-.73-1.93,0-2.66l15.54-15.54-15.54-15.54c-.73-.73-.73-1.93,0-2.66.73-.73,1.93-.73,2.66,0l15.54,15.54,15.54-15.54c.73-.73,1.93-.73,2.66,0,.73.73.73,1.93,0,2.66l-15.54,15.54,15.54,15.54Z"/>
</svg>