<?xml version="1.0" encoding="UTF-8"?>
<svg id="Layer_1" data-name="Layer 1" xmlns="http://www.w3.org/2000/svg" viewBox="0 0 100 100">
  <defs>
    <style>
      .cls-1 {
        fill: #000;
        stroke-width: 0px;
      }
    </style>
  </defs>
  <rect class="cls-1" x="27.5" y="46.25" width="45" height="7.5" rx="3.75" ry="3.75" transform="translate(-20.71 50) rotate(-45)"/>
  <g>
    <path class="cls-1" d="M55.21,18.28c-2.51,2.51-4.15,5.55-4.93,8.77-.19.78,4.77.96,7.43,1.27.51-1.73,1.44-3.37,2.81-4.73,4.39-4.39,11.52-4.39,15.91,0,4.39,4.39,4.39,11.52,0,15.91-1.34,1.34-2.94,2.26-4.63,2.78.22,2.67.16,7.69.85,7.54,3.33-.75,6.49-2.42,9.08-5.01,7.32-7.32,7.32-19.19,0-26.52-7.32-7.32-19.19-7.32-26.52,0Z"/>
    <circle class="cls-1" cx="72.14" cy="45.98" r="3.75"/>
    <circle class="cls-1" cx="53.92" cy="27.76" r="3.75"/>
  </g>
  <g>
    <path class="cls-1" d="M18.28,55.21c2.51-2.51,5.55-4.15,8.77-4.93.78-.19.96,4.77,1.27,7.43-1.73.51-3.37,1.44-4.73,2.81-4.39,4.39-4.39,11.52,0,15.91,4.39,4.39,11.52,4.39,15.91,0,1.34-1.34,2.26-2.94,2.78-4.63,2.67.22,7.69.16,7.54.85-.75,3.33-2.42,6.49-5.01,9.08-7.32,7.32-19.19,7.32-26.52,0-7.32-7.32-7.32-19.19,0-26.52Z"/>
    <circle class="cls-1" cx="45.98" cy="72.14" r="3.75"/>
    <circle class="cls-1" cx="27.76" cy="53.92" r="3.75"/>
  </g>
</svg>