<?xml version="1.0" encoding="UTF-8"?>
<svg id="Layer_1" data-name="Layer 1" xmlns="http://www.w3.org/2000/svg" viewBox="0 0 100 100">
  <defs>
    <style>
      .cls-1 {
        fill: #000;
        stroke-width: 0px;
      }
    </style>
  </defs>
  <path class="cls-1" d="M27.48,37.26s.01,0,.02,0v-13.52c0-2.07,1.68-3.75,3.75-3.75h37.5c2.07,0,3.75,1.68,3.75,3.75v12.69c2.28-1.23,5.23-1.37,7.5-.06v-16.38c0-4.14-3.36-7.5-7.5-7.5H27.5c-4.14,0-7.5,3.36-7.5,7.5v19.49c1.82-2,5.03-2.9,7.48-2.23Z"/>
  <path class="cls-1" d="M72.5,65.21v11.04c0,2.07-1.68,3.75-3.75,3.75H31.25c-2.07,0-3.75-1.68-3.75-3.75v-13.28c-1.35.59-2.9.74-4.56.29-1.07-.29-2.08-.9-2.94-1.7v18.44c0,4.14,3.36,7.5,7.5,7.5h45c4.14,0,7.5-3.36,7.5-7.5v-14.17c-2.4,1.03-5.36.82-7.5-.62Z"/>
  <path class="cls-1" d="M80,31.25H20c-4.14,0-7.5,3.36-7.5,7.5v22.5c0,4.14,3.36,7.5,7.5,7.5h60c4.14,0,7.5-3.36,7.5-7.5v-22.5c0-4.14-3.36-7.5-7.5-7.5ZM30.45,56.03c2.14,0,3.52-1.17,3.81-3.05l5.65.06c-.29,3.63-3.49,7.85-9.58,7.85s-10.19-3.87-10.19-10.9,4.48-10.9,10.19-10.9c5.27,0,9.11,2.96,9.58,8.17h-5.65c-.18-1.99-1.52-3.31-3.78-3.31-2.93,0-4.6,2.26-4.6,6.03,0,3.98,1.7,6.03,4.57,6.03ZM49.6,60.87c-5.48,0-9.02-2.4-9.08-7.62h5.33c.09,1.96,1.46,3.02,3.66,3.02,1.9,0,2.93-.79,2.96-1.9-.03-1.03-.88-1.61-3.25-2.14l-2.14-.47c-3.72-.82-6.01-2.67-6.01-5.95-.03-4.01,3.52-6.71,8.5-6.71s8.29,2.72,8.32,6.86h-5.36c-.12-1.44-1.05-2.26-2.96-2.26s-2.67.7-2.7,1.7c-.03,1.08.97,1.7,2.93,2.11l1.76.41c4.57.97,6.59,3.19,6.62,6.45-.03,4.16-3.22,6.5-8.58,6.5ZM72.83,60.61h-7.59l-7.06-21.21h6.3l4.45,15.12h.18l4.45-15.12h6.3l-7.03,21.21Z"/>
</svg>