<?xml version="1.0" encoding="UTF-8"?>
<svg id="Layer_1" data-name="Layer 1" xmlns="http://www.w3.org/2000/svg" viewBox="0 0 100 100">
  <defs>
    <style>
      .cls-1 {
        fill: #000;
        stroke-width: 0px;
      }
    </style>
  </defs>
  <path class="cls-1" d="M73.93,83.75V16.41c0-1.96,1.43-3.71,3.38-3.89,2.24-.21,4.12,1.54,4.12,3.73v67.34c0,1.96-1.43,3.71-3.38,3.89-2.24.21-4.12-1.54-4.12-3.73Z"/>
  <g>
    <path class="cls-1" d="M41.9,43.69h20.83v30.83c0,3.68-2.99,6.67-6.67,6.67h-7.5c-3.68,0-6.67-2.99-6.67-6.67v-30.83h0Z" transform="translate(114.76 10.11) rotate(90)"/>
    <path class="cls-1" d="M34.4,11.32h20.83v45.83c0,3.68-2.99,6.67-6.67,6.67h-7.5c-3.68,0-6.67-2.99-6.67-6.67V11.32h0Z" transform="translate(82.39 -7.26) rotate(90)"/>
  </g>
</svg>