<?xml version="1.0" encoding="UTF-8"?>
<svg id="Layer_1" data-name="Layer 1" xmlns="http://www.w3.org/2000/svg" viewBox="0 0 100 100">
  <defs>
    <style>
      .cls-1 {
        fill: #000;
        stroke-width: 0px;
      }
    </style>
  </defs>
  <g>
    <rect class="cls-1" x="12.31" y="54.62" width="30.47" height="7.5" rx="3.75" ry="3.75"/>
    <rect class="cls-1" x="57.22" y="54.62" width="30.47" height="7.5" rx="3.75" ry="3.75"/>
  </g>
  <g>
    <rect class="cls-1" x="29.62" y="17.98" width="23.32" height="7.5" rx="3.75" ry="3.75" transform="translate(55.1 66.29) rotate(-135)"/>
    <rect class="cls-1" x="47.2" y="17.98" width="23.32" height="7.5" rx="3.75" ry="3.75" transform="translate(1.87 47.98) rotate(-45)"/>
  </g>
  <g>
    <path class="cls-1" d="M16.17,35.65l18.19,17.92c1.48,1.46,3.89,1.46,5.38,0h0c1.48-1.46,1.48-3.83,0-5.29l-18.19-17.92c-1.48-1.46-3.89-1.46-5.38,0h0c-1.48,1.46-1.48,3.83,0,5.29Z"/>
    <path class="cls-1" d="M83.95,35.65l-18.19,17.92c-1.48,1.46-3.89,1.46-5.38,0h0c-1.48-1.46-1.48-3.83,0-5.29l18.19-17.92c1.48-1.46,3.89-1.46,5.38,0h0c1.48,1.46,1.48,3.83,0,5.29Z"/>
  </g>
  <g>
    <path class="cls-1" d="M16.17,81l18.19-17.92c1.48-1.46,3.89-1.46,5.38,0h0c1.48,1.46,1.48,3.83,0,5.29l-18.19,17.92c-1.48,1.46-3.89,1.46-5.38,0h0c-1.48-1.46-1.48-3.83,0-5.29Z"/>
    <path class="cls-1" d="M83.95,81l-18.19-17.92c-1.48-1.46-3.89-1.46-5.38,0h0c-1.48,1.46-1.48,3.83,0,5.29l18.19,17.92c1.48,1.46,3.89,1.46,5.38,0h0c1.48-1.46,1.48-3.83,0-5.29Z"/>
  </g>
  <g>
    <path class="cls-1" d="M32.67,37.86c-.76,0-1.37.61-1.37,1.37h0v29.72c0,9.72,7.4,17.71,16.87,18.66v-49.74h-15.51Z"/>
    <path class="cls-1" d="M67.44,37.86h-15.49s-.01,0-.01.01v49.72s0,.02.02.01c9.47-.95,16.86-8.94,16.86-18.65v-29.72h0c0-.76-.61-1.37-1.37-1.37Z"/>
    <path class="cls-1" d="M34.24,34.11h31.63c1.03,0,1.72-1.09,1.26-2.01-2.63-5.3-8.08-8.94-14.39-8.94h-5.36c-6.31,0-11.77,3.65-14.39,8.94-.46.92.23,2.01,1.26,2.01Z"/>
  </g>
</svg>