<?xml version="1.0" encoding="UTF-8"?>
<svg id="Layer_1" data-name="Layer 1" xmlns="http://www.w3.org/2000/svg" viewBox="0 0 100 100">
  <defs>
    <style>
      .cls-1 {
        fill: #000;
        stroke-width: 0px;
      }
    </style>
  </defs>
  <path class="cls-1" d="M59.5,86.28c1.65-.43,2.82-1.89,2.84-3.6l.05-4.76c.03-2.85,3.1-4.62,5.59-3.23l4.14,2.33c1.49.84,3.34.55,4.54-.67,4.49-4.54,7.83-10.22,9.54-16.57.43-1.6-.3-3.29-1.73-4.14l-4.09-2.43c-2.45-1.45-2.45-5,0-6.45l4.09-2.43c1.43-.85,2.16-2.54,1.73-4.14-1.71-6.35-5.05-12.03-9.54-16.57-1.2-1.21-3.05-1.5-4.54-.67l-4.14,2.33c-2.48,1.4-5.56-.38-5.59-3.23l-.05-4.76c-.02-1.71-1.19-3.17-2.84-3.6-3.03-.79-6.21-1.22-9.5-1.22s-6.46.43-9.5,1.22c-1.65.43-2.83,1.89-2.84,3.6l-.05,4.76c-.03,2.85-3.1,4.62-5.59,3.23l-4.14-2.33c-1.49-.84-3.34-.55-4.54.67-4.49,4.54-7.83,10.22-9.54,16.57-.43,1.6.3,3.29,1.73,4.14l4.09,2.43c2.45,1.45,2.45,5,0,6.45l-4.09,2.43c-1.43.85-2.16,2.54-1.73,4.14,1.71,6.35,5.05,12.03,9.54,16.57,1.2,1.21,3.05,1.5,4.54.67l4.14-2.33c2.48-1.4,5.56.38,5.59,3.23l.05,4.76c.02,1.71,1.19,3.17,2.84,3.6,3.03.79,6.21,1.22,9.5,1.22s6.46-.43,9.5-1.22ZM38.75,50c0-6.21,5.04-11.25,11.25-11.25s11.25,5.04,11.25,11.25-5.04,11.25-11.25,11.25-11.25-5.04-11.25-11.25Z"/>
</svg>