<?xml version="1.0" encoding="UTF-8"?>
<svg id="Layer_1" data-name="Layer 1" xmlns="http://www.w3.org/2000/svg" viewBox="0 0 100 100">
  <defs>
    <style>
      .cls-1 {
        fill: #000;
        stroke-width: 0px;
      }
    </style>
  </defs>
  <g>
    <path class="cls-1" d="M64,60.24l-14.62,3.17c-4.44.96-6.97,5.68-5.31,9.91l1.15,2.93c3.57,9.11,13.85,13.6,22.96,10.03l4.12-1.62c3.8-1.49,5.67-5.77,4.18-9.57l-4.05-10.33c-1.32-3.37-4.9-5.29-8.44-4.52Z"/>
    <path class="cls-1" d="M43.09,39.01c-6.18,1.37-12.38,2.89-18.29,5.05,3.24,16.16,12.7,30.16,25.86,39.29,2.13-2.07,3.86-4.69,5.61-6.99,2-2.64,4-5.29,6.06-7.88-10.06-6.6-17.17-17.22-19.23-29.48Z"/>
  </g>
  <g>
    <path class="cls-1" d="M49.97,34.13l-10.6,10.55c-3.22,3.21-8.55,2.77-11.2-.92l-1.83-2.55c-5.71-7.95-3.9-19.02,4.05-24.73l3.6-2.59c3.31-2.38,7.92-1.62,10.3,1.69l6.48,9.01c2.11,2.94,1.78,6.98-.79,9.54Z"/>
    <path class="cls-1" d="M56.43,63.21c-4.51,4.44-9.15,8.82-14.18,12.62-11.81-11.5-18.43-27.04-18.95-43.05,2.9-.67,6.04-.7,8.91-.91,3.31-.25,6.61-.49,9.91-.81.08,12.03,5.13,23.77,14.3,32.16Z"/>
  </g>
</svg>