<?xml version="1.0" encoding="UTF-8"?>
<svg id="Layer_1" data-name="Layer 1" xmlns="http://www.w3.org/2000/svg" viewBox="0 0 100 100">
  <defs>
    <style>
      .cls-1 {
        fill: #000;
        stroke-width: 0px;
      }
    </style>
  </defs>
  <path class="cls-1" d="M85.34,60.09l-3.68-1.56-24.25,10.32c-4.75,2.02-10.13,2.02-14.88,0l-24.21-10.3-3.67,1.56c-2.87,1.22-2.87,5.3,0,6.52l27.33,11.63c5.11,2.17,10.88,2.17,15.99,0l27.36-11.65c2.88-1.22,2.87-5.3,0-6.52Z"/>
  <path class="cls-1" d="M85.34,33.52l-28.14-11.95c-4.61-1.96-9.82-1.96-14.44,0l-28.11,11.97c-2.87,1.22-2.87,5.3,0,6.52l28.1,11.96c4.61,1.96,9.83,1.96,14.44,0l28.14-11.98c2.88-1.22,2.87-5.3,0-6.52Z"/>
  <path class="cls-1" d="M85.34,46.81l-3.68-1.56-24.25,10.32c-4.75,2.02-10.13,2.02-14.88,0l-24.21-10.3-3.67,1.56c-2.87,1.22-2.87,5.3,0,6.52l26.87,11.43c5.4,2.3,11.5,2.3,16.9,0l26.91-11.46c2.88-1.22,2.87-5.3,0-6.52Z"/>
</svg>