<?xml version="1.0" encoding="UTF-8"?>
<svg id="Layer_1" data-name="Layer 1" xmlns="http://www.w3.org/2000/svg" viewBox="0 0 100 100">
  <defs>
    <style>
      .cls-1 {
        fill: #000;
        stroke-width: 0px;
      }
    </style>
  </defs>
  <path class="cls-1" d="M72.5,12.5H27.5c-4.14,0-7.5,3.36-7.5,7.5v60c0,4.14,3.36,7.5,7.5,7.5h45c4.14,0,7.5-3.36,7.5-7.5V20c0-4.14-3.36-7.5-7.5-7.5ZM65.84,60.55h-31.68c-1.61,0-2.91-1.3-2.91-2.91s1.3-2.91,2.91-2.91h31.68c1.61,0,2.91,1.3,2.91,2.91s-1.3,2.91-2.91,2.91ZM65.84,48.16h-31.68c-1.61,0-2.91-1.3-2.91-2.91s1.3-2.91,2.91-2.91h31.68c1.61,0,2.91,1.3,2.91,2.91s-1.3,2.91-2.91,2.91ZM65.84,35.76h-31.68c-1.61,0-2.91-1.3-2.91-2.91s1.3-2.91,2.91-2.91h31.68c1.61,0,2.91,1.3,2.91,2.91s-1.3,2.91-2.91,2.91Z"/>
</svg>