<?xml version="1.0" encoding="UTF-8"?>
<svg id="Layer_1" data-name="Layer 1" xmlns="http://www.w3.org/2000/svg" viewBox="0 0 100 100">
  <defs>
    <style>
      .cls-1 {
        fill: #000;
        stroke-width: 0px;
      }
    </style>
  </defs>
  <path class="cls-1" d="M63.25,22.72c-.31,1.38-.98,2.66-2,3.62v3.69c8.87,4.21,15,13.25,15,23.72,0,14.5-11.75,26.25-26.25,26.25s-26.25-11.75-26.25-26.25c0-10.47,6.13-19.51,15-23.72v-4.33c-1.04-.73-1.81-1.73-2.29-2.87-11.9,5.22-20.21,17.09-20.21,30.91,0,18.64,15.11,33.75,33.75,33.75s33.75-15.11,33.75-33.75c0-13.93-8.45-25.88-20.5-31.03Z"/>
  <rect class="cls-1" x="46.25" y="12.5" width="7.5" height="30" rx="3.75" ry="3.75"/>
  <circle class="cls-1" cx="37.88" cy="26.35" r="3.75"/>
  <circle class="cls-1" cx="62.29" cy="26.35" r="3.75"/>
</svg>