<svg xmlns="http://www.w3.org/2000/svg" viewBox="0 0 100 100"><path class="cls-1" d="M50,12.5c-20.71,0-37.5,16.79-37.5,37.5s16.79,37.5,37.5,37.5,37.5-16.79,37.5-37.5S70.71,12.5,50,12.5ZM62.25,40c2.07,0,3.75,1.68,3.75,3.75s-1.68,3.75-3.75,3.75-3.75-1.68-3.75-3.75,1.68-3.75,3.75-3.75ZM37.92,40c2.07,0,3.75,1.68,3.75,3.75s-1.68,3.75-3.75,3.75-3.75-1.68-3.75-3.75,1.68-3.75,3.75-3.75ZM66.17,59.42s0,.04,0,.06c-3.26,5.54-9.28,9.27-16.17,9.27s-12.57-3.51-15.89-8.8c-.03-.05-.04-.11-.03-.17-.28-.33-.46-.75-.46-1.22,0-1.04.84-1.87,1.87-1.87.74,0,1.37.43,1.68,1.05,2.63,4.34,7.38,7.25,12.83,7.25s10.21-2.92,12.84-7.27c0,0,.01,0,.01,0,.31-.62.94-1.04,1.67-1.04,1.04,0,1.87.84,1.87,1.87,0,.31-.08.6-.21.85Z"/></svg>