<?xml version="1.0" encoding="UTF-8"?>
<svg id="Layer_1" data-name="Layer 1" xmlns="http://www.w3.org/2000/svg" viewBox="0 0 100 100">
  <defs>
    <style>
      .cls-1 {
        fill: #000;
        stroke-width: 0px;
      }
    </style>
  </defs>
  <path class="cls-1" d="M50,12.5c-20.71,0-37.5,16.79-37.5,37.5s16.79,37.5,37.5,37.5,37.5-16.79,37.5-37.5S70.71,12.5,50,12.5ZM62.25,40c2.07,0,3.75,1.68,3.75,3.75s-1.68,3.75-3.75,3.75-3.75-1.68-3.75-3.75,1.68-3.75,3.75-3.75ZM37.92,40c2.07,0,3.75,1.68,3.75,3.75s-1.68,3.75-3.75,3.75-3.75-1.68-3.75-3.75,1.68-3.75,3.75-3.75ZM64.51,69.01c-.73,0-1.36-.43-1.67-1.04,0,0-.01,0-.01,0-2.63-4.35-7.38-7.27-12.84-7.27s-10.2,2.91-12.83,7.25c-.3.62-.94,1.05-1.68,1.05-1.04,0-1.87-.84-1.87-1.87,0-.47.18-.89.46-1.22,0-.06,0-.12.03-.17,3.32-5.28,9.19-8.8,15.89-8.8s12.92,3.72,16.17,9.27c.01.02,0,.04,0,.06.13.26.21.54.21.85,0,1.04-.84,1.87-1.87,1.87Z"/>
</svg>