<?xml version="1.0" encoding="UTF-8"?>
<svg id="Layer_1" data-name="Layer 1" xmlns="http://www.w3.org/2000/svg" viewBox="0 0 100 100">
  <defs>
    <style>
      .cls-1 {
        fill: #000;
        stroke-width: 0px;
      }
    </style>
  </defs>
  <path class="cls-1" d="M80.5,26.52s0,0,0,0c.02-.02.04-.04.07-.05-7.14-8.41-17.95-13.89-30.78-13.64-13.43.25-25.82,7.73-32.26,19.51-11.41,20.86-2.31,44.64,16.67,53.89,7.22,2.6,12.73-.46,13.82-4.93.75-3.09-.24-6.19-2.33-8.29-.15-.15-.31-.3-.48-.44-1.18-1.02-2.25-2.17-3.03-3.52l-.13-.23c-.04-.27-.08-.63-.12-.9.03-.12.06-.23.1-.35.73-2.09,3.29-2.79,5.14-1.58.83.54,1.69,1.04,2.58,1.5,1.74.88,3.6,1.58,5.57,2.06,13.96,3.4,28.04-5.15,31.44-19.11,2.15-8.84-.49-17.71-6.25-23.91ZM30.82,57.83c-4.22,0-7.65-3.42-7.65-7.65s3.42-7.65,7.65-7.65,7.65,3.42,7.65,7.65-3.42,7.65-7.65,7.65ZM39.56,37.68c-3.17,0-5.74-2.57-5.74-5.74s2.57-5.74,5.74-5.74,5.74,2.57,5.74,5.74-2.57,5.74-5.74,5.74ZM55.77,33.66c-3.17,0-5.74-2.57-5.74-5.74s2.57-5.74,5.74-5.74,5.74,2.57,5.74,5.74-2.57,5.74-5.74,5.74ZM71.98,39.84c-3.17,0-5.74-2.57-5.74-5.74s2.57-5.74,5.74-5.74,5.74,2.57,5.74,5.74-2.57,5.74-5.74,5.74Z"/>
</svg>