<?xml version="1.0" encoding="UTF-8"?>
<svg id="Layer_1" data-name="Layer 1" xmlns="http://www.w3.org/2000/svg" viewBox="0 0 100 100">
  <defs>
    <style>
      .cls-1 {
        fill: #000;
        stroke-width: 0px;
      }
    </style>
  </defs>
  <path class="cls-1" d="M50,12.5c-20.71,0-37.5,16.79-37.5,37.5s16.79,37.5,37.5,37.5,37.5-16.79,37.5-37.5S70.71,12.5,50,12.5ZM49.95,68.75c-1.04,0-1.88-.84-1.88-1.88s.84-1.88,1.88-1.88,1.88.84,1.88,1.88-.84,1.88-1.88,1.88ZM55.4,52.39c-.68.37-1.4.68-2.16.9-.8.24-1.37.96-1.37,1.8v6.21c0,1.13-.84,2.04-1.88,2.04s-1.88-.91-1.88-2.04v-7.61c0-1.91,1.43-3.48,3.27-3.72.04,0,.08-.01.13-.02,3.78-.46,6.19-3.83,5.98-7.85-.2-3.79-3.3-6.89-7.09-7.09-4.33-.23-7.91,3.22-7.91,7.5,0,1.09-.93,1.96-2.03,1.87-1.01-.08-1.73-.99-1.72-2,.07-6.5,5.66-11.68,12.31-11.08,5.29.48,9.58,4.69,10.15,9.97.51,4.78-1.97,9.03-5.79,11.13Z"/>
</svg>