<?xml version="1.0" encoding="UTF-8"?>
<svg id="Layer_1" data-name="Layer 1" xmlns="http://www.w3.org/2000/svg" viewBox="0 0 100 100">
  <defs>
    <style>
      .cls-1 {
        fill: #000;
        stroke-width: 0px;
      }
    </style>
  </defs>
  <path class="cls-1" d="M87.46,79.68h0c0-.82-.28-1.62-.8-2.25l-7.67-9.38c-1.42-1.74-4.08-1.74-5.51,0l-2.59,3.17c-2.72,3.32-7.79,3.32-10.51,0l-17.07-20.87c-1.42-1.74-4.08-1.74-5.51,0l-24.54,30c-.52.64-.8,1.43-.8,2.25h0c0,2.7,2.19,4.9,4.9,4.9h62.29c4.32,0,7.81-3.5,7.81-7.81Z"/>
  <path class="cls-1" d="M80.03,12.5H20.04c-4.14,0-7.5,3.36-7.5,7.5v51.32c0,1.32,1.66,1.9,2.48.86l20.39-25.74c2.58-3.26,7.53-3.27,10.13-.02l17.7,22.15c1.26,1.58,3.65,1.63,4.98.1l2.98-3.43c2.62-3.02,7.33-2.96,9.88.12l3.99,4.82c.83,1,2.46.42,2.46-.89V20c0-4.14-3.36-7.5-7.5-7.5ZM75.53,33.41c-4.6.87-8.56-3.09-7.69-7.69.49-2.57,2.56-4.65,5.13-5.13,4.6-.87,8.56,3.09,7.69,7.69-.49,2.57-2.56,4.65-5.13,5.13Z"/>
  <circle class="cls-1" cx="74.25" cy="27" r="3.43"/>
</svg>