<?xml version="1.0" encoding="UTF-8"?>
<svg id="Layer_1" data-name="Layer 1" xmlns="http://www.w3.org/2000/svg" viewBox="0 0 100 100">
  <defs>
    <style>
      .cls-1 {
        fill: #000;
        stroke-width: 0px;
      }
    </style>
  </defs>
  <path class="cls-1" d="M33.92,43.56h45.86v-10.39c0-3.73-3.02-6.75-6.75-6.75h-30.84l-7.87-5.78c-1.16-.85-2.56-1.31-3.99-1.31h-11.29c-3.73,0-6.75,3.02-6.75,6.75v40.83c0,3.73,3.02,6.75,6.75,6.75h2.44l8.48-27.06c.57-1.82,2.17-3.05,3.97-3.05Z"/>
  <path class="cls-1" d="M74.92,80.67H26.88c-2.56,0-4.37-2.51-3.56-4.94l9.05-27.05c.51-1.53,1.94-2.56,3.56-2.56h48.04c2.56,0,4.37,2.51,3.56,4.94l-9.05,27.05c-.51,1.53-1.94,2.56-3.56,2.56Z"/>
</svg>