<?xml version="1.0" encoding="UTF-8"?>
<svg id="Layer_1" data-name="Layer 1" xmlns="http://www.w3.org/2000/svg" viewBox="0 0 100 100">
  <defs>
    <style>
      .cls-1 {
        fill: #000;
        stroke-width: 0px;
      }
    </style>
  </defs>
  <path class="cls-1" d="M84.21,38.76l-19.63-3.28-1.41-.24-9.84-18.92c-.7-1.35-2.02-2.02-3.33-2.02-1.31,0-2.63.67-3.33,2.02l-9.84,18.92-1.41.24-19.63,3.28c-2.99.5-4.18,4.16-2.06,6.33l14.96,15.21-3.16,21.09c-.45,3,2.67,5.27,5.38,3.91l4.51-2.25,7.57-3.78.37-.19h0s6.64-3.31,6.64-3.31l6.64,3.31h0s.37.18.37.18l7.57,3.78,4.51,2.25c2.72,1.36,5.83-.91,5.38-3.91l-3.16-21.09,14.96-15.21c2.13-2.16.94-5.83-2.06-6.33ZM80.67,44.65l-14.81,13.68,3.94,19.77c.25,1.26-1.09,2.23-2.2,1.6l-3.01-1.69-14.58-8.17h0s0,0,0,0l-14.58,8.17-3.01,1.69c-1.12.63-2.45-.35-2.2-1.6l3.94-19.77-14.81-13.68c-.94-.87-.43-2.44.84-2.59l15.24-1.8,4.78-.56,3.16-6.86v.02l5.28-11.47c.27-.58.81-.87,1.36-.87.55,0,1.09.29,1.36.87l5.28,11.47v-.02l3.16,6.86,4.78.56,15.24,1.8c1.27.15,1.78,1.72.84,2.59Z"/>
</svg>