<?xml version="1.0" encoding="UTF-8"?>
<svg id="Layer_1" data-name="Layer 1" xmlns="http://www.w3.org/2000/svg" viewBox="0 0 100 100">
  <defs>
    <style>
      .cls-1 {
        fill: #000;
        stroke-width: 0px;
      }
    </style>
  </defs>
  <path class="cls-1" d="M13.25,42.33h21.58c4.14,0,7.5-3.36,7.5-7.5V13.25c0-.67-.81-1-1.28-.53l-28.33,28.33c-.47.47-.14,1.28.53,1.28Z"/>
  <path class="cls-1" d="M76.25,12.5h-30v22.5c0,6.21-5.04,11.25-11.25,11.25H12.5v30c0,6.21,5.04,11.25,11.25,11.25h52.5c6.21,0,11.25-5.04,11.25-11.25V23.75c0-6.21-5.04-11.25-11.25-11.25ZM65.94,62.18h-31.87c-1.49,0-2.69-1.21-2.69-2.69s1.21-2.7,2.69-2.7h31.87c1.49,0,2.69,1.21,2.69,2.7s-1.21,2.69-2.69,2.69ZM68.63,40.7c0,1.39-1.12,2.51-2.51,2.51h-13.4c-1.49,0-2.69-1.21-2.69-2.7s1.21-2.69,2.69-2.69h13.4c1.39,0,2.51,1.12,2.51,2.51v.37Z"/>
</svg>