<?xml version="1.0" encoding="UTF-8"?>
<svg id="Layer_1" data-name="Layer 1" xmlns="http://www.w3.org/2000/svg" viewBox="0 0 100 100">
  <defs>
    <style>
      .cls-1 {
        fill: #000;
        stroke-width: 0px;
      }
    </style>
  </defs>
  <g>
    <rect class="cls-1" x="29.82" y="44.76" width="8.22" height="8.22" rx="4.11" ry="4.11"/>
    <rect class="cls-1" x="29.82" y="44.76" width="8.22" height="8.22" rx="4.11" ry="4.11"/>
    <rect class="cls-1" x="40.53" y="44.76" width="8.22" height="8.22" rx="4.11" ry="4.11"/>
    <rect class="cls-1" x="51.24" y="44.76" width="8.22" height="8.22" rx="4.11" ry="4.11"/>
    <rect class="cls-1" x="61.96" y="44.76" width="8.22" height="8.22" rx="4.11" ry="4.11"/>
    <rect class="cls-1" x="29.82" y="55.32" width="8.22" height="8.22" rx="4.11" ry="4.11"/>
    <rect class="cls-1" x="29.82" y="55.32" width="8.22" height="8.22" rx="4.11" ry="4.11"/>
    <rect class="cls-1" x="40.53" y="55.32" width="8.22" height="8.22" rx="4.11" ry="4.11"/>
    <rect class="cls-1" x="51.24" y="55.32" width="8.22" height="8.22" rx="4.11" ry="4.11"/>
    <rect class="cls-1" x="61.96" y="55.32" width="8.22" height="8.22" rx="4.11" ry="4.11"/>
    <rect class="cls-1" x="29.82" y="65.88" width="8.22" height="8.22" rx="4.11" ry="4.11"/>
    <rect class="cls-1" x="29.82" y="65.88" width="8.22" height="8.22" rx="4.11" ry="4.11"/>
    <rect class="cls-1" x="40.53" y="65.88" width="8.22" height="8.22" rx="4.11" ry="4.11"/>
  </g>
  <g>
    <path class="cls-1" d="M87.5,31.79c0-6.21-5.04-11.25-11.25-11.25H23.75c-6.21,0-11.25,5.04-11.25,11.25v3.36h75v-3.36Z"/>
    <path class="cls-1" d="M12.5,32v42.64c0,6.97,5.65,12.62,12.62,12.62h49.76c6.97,0,12.62-5.65,12.62-12.62V32c0-.76-.61-1.37-1.37-1.37H13.87c-.76,0-1.37.61-1.37,1.37ZM80,71.14c0,4.44-4.03,8.04-9,8.04H29c-4.97,0-9-3.6-9-8.04v-31.05c0-.76.61-1.37,1.37-1.37h57.26c.76,0,1.37.61,1.37,1.37v31.05Z"/>
    <g>
      <rect class="cls-1" x="66.79" y="12.74" width="7.5" height="12.43" rx="3.75" ry="3.75"/>
      <rect class="cls-1" x="27.79" y="12.74" width="7.5" height="12.43" rx="3.75" ry="3.75"/>
    </g>
  </g>
</svg>