<?xml version="1.0" encoding="UTF-8"?>
<svg id="Layer_1" data-name="Layer 1" xmlns="http://www.w3.org/2000/svg" viewBox="0 0 100 100">
  <defs>
    <style>
      .cls-1 {
        fill: #000;
        stroke-width: 0px;
      }
    </style>
  </defs>
  <path class="cls-1" d="M87.5,50c0-20.71-16.79-37.5-37.5-37.5S12.5,29.29,12.5,50s16.79,37.5,37.5,37.5,37.5-16.79,37.5-37.5ZM45.53,65.03l-13.43-13.43c-.24-.16-.44-.38-.59-.63-.18-.26-.27-.58-.26-.88,0-.02,0-.04,0-.06,0-.01,0-.02,0-.03,0-.01,0-.02,0-.03,0-.02,0-.04,0-.06-.01-.31.07-.62.26-.88.15-.25.35-.47.59-.63l13.43-13.43c.57-.57,1.49-.57,2.05,0l.6.6c.57.57.57,1.49,0,2.05l-10.47,10.47h29.16c1.04,0,1.87.84,1.87,1.87,0,.01,0,.02,0,.03,0,.01,0,.02,0,.03,0,1.04-.84,1.87-1.87,1.87h-29.16l10.47,10.47c.57.57.57,1.49,0,2.05l-.6.6c-.57.57-1.49.57-2.05,0Z"/>
</svg>