<?xml version="1.0" encoding="UTF-8"?>
<svg id="Layer_1" data-name="Layer 1" xmlns="http://www.w3.org/2000/svg" viewBox="0 0 100 100">
  <defs>
    <style>
      .cls-1 {
        fill: #000;
        stroke-width: 0px;
      }
    </style>
  </defs>
  <path class="cls-1" d="M50,12.5c-20.71,0-37.5,16.79-37.5,37.5s16.79,37.5,37.5,37.5,37.5-16.79,37.5-37.5S70.71,12.5,50,12.5ZM32.95,69.33c-.68,0-1.28-.37-1.6-.92h-.04c-4.67-4.74-7.55-11.24-7.55-18.42,0-14.5,11.75-26.25,26.25-26.25,1.9,0,3.74.22,5.52.6.12.01.24.04.35.08.1.02.21.04.31.07,0,.02,0,.04,0,.06.59.31,1,.93,1,1.65,0,1.04-.84,1.87-1.87,1.87-.21,0-.4-.04-.58-.1,0,0-.01.01-.02.02-1.52-.32-3.09-.5-4.71-.5-12.43,0-22.5,10.07-22.5,22.5,0,6.29,2.6,11.96,6.76,16.05,0,.02,0,.04-.02.07.35.34.58.82.58,1.35,0,1.04-.84,1.87-1.87,1.87ZM55.89,55.89c-3.25,3.25-8.53,3.25-11.78,0-3.25-3.25-3.25-8.53,0-11.78,2.8-2.8,7.09-3.18,10.3-1.17l13.09-13.09c.73-.73,1.92-.73,2.65,0,.73.73.73,1.92,0,2.65l-13.09,13.09c2.01,3.22,1.63,7.51-1.17,10.3ZM68.7,68.42h-.11c-.33.55-.92.92-1.6.92-1.04,0-1.87-.84-1.87-1.87,0-.63.32-1.19.8-1.53,0,0,0-.01-.01-.02,4.08-4.07,6.6-9.69,6.6-15.91,0-2.52-.42-4.95-1.19-7.21.02-.02.03-.03.05-.05-.06-.18-.1-.38-.1-.58,0-1.04.84-1.87,1.87-1.87.98,0,1.77.75,1.86,1.7.81,2.53,1.26,5.22,1.26,8.02,0,7.18-2.88,13.68-7.55,18.42Z"/>
</svg>