<?xml version="1.0" encoding="UTF-8"?>
<svg id="Layer_1" data-name="Layer 1" xmlns="http://www.w3.org/2000/svg" viewBox="0 0 100 100">
  <defs>
    <style>
      .cls-1 {
        fill: #000;
        stroke-width: 0px;
      }
    </style>
  </defs>
  <path class="cls-1" d="M84.21,38.75l-19.63-3.28-1.41-.24-9.84-18.92c-.67-1.29-1.91-1.96-3.17-2.01-1.36-.06-2.75.61-3.48,2.01l-7.22,13.88-2.62,5.05-21.04,3.51c-2.99.5-4.18,4.16-2.06,6.33l14.96,15.21-3.16,21.09c-.45,3,2.67,5.27,5.38,3.91l8.54-4.26,10.54-5.26.16.08,14.42,7.2,4.51,2.25c2.72,1.36,5.83-.91,5.38-3.91l-3.16-21.09,14.96-15.21c2.13-2.16.94-5.83-2.06-6.33ZM80.66,44.65l-14.81,13.68,3.94,19.77c.25,1.26-1.09,2.23-2.2,1.6l-3.01-1.69-14.42-8.08V20.53c.49.05.96.33,1.21.85l8.43,18.31,4.78.56,15.24,1.8c1.27.15,1.78,1.72.84,2.59Z"/>
</svg>