<?xml version="1.0" encoding="UTF-8"?>
<svg id="Layer_1" data-name="Layer 1" xmlns="http://www.w3.org/2000/svg" viewBox="0 0 100 100">
  <defs>
    <style>
      .cls-1 {
        fill: #000;
        stroke-width: 0px;
      }
    </style>
  </defs>
  <path class="cls-1" d="M66.47,53.87c-2.03,6.33-8.49,11.09-15.18,11.09-7.17,0-12.84-4.74-14.95-11.09h-9.91l17.44,30.21c2.72,4.71,9.52,4.71,12.24,0l17.44-30.21h-7.09Z"/>
  <path class="cls-1" d="M50,12.38c-15.18,0-27.49,12.31-27.49,27.49s12.31,27.49,27.49,27.49,27.49-12.31,27.49-27.49-12.31-27.49-27.49-27.49ZM50,58.71c-10.4,0-18.83-8.43-18.83-18.83s8.43-18.83,18.83-18.83,18.83,8.43,18.83,18.83-8.43,18.83-18.83,18.83Z"/>
</svg>