<?xml version="1.0" encoding="UTF-8"?>
<svg id="Layer_1" data-name="Layer 1" xmlns="http://www.w3.org/2000/svg" viewBox="0 0 100 100">
  <defs>
    <style>
      .cls-1 {
        fill: #000;
        stroke-width: 0px;
      }
    </style>
  </defs>
  <path class="cls-1" d="M87.49,26.55c0-5.81-4.71-10.52-10.52-10.52H23.02c-5.81-.02-10.53,4.7-10.52,10.51v31.44c.01,5.81,4.72,10.52,10.53,10.52h53.95c5.81.02,10.53-4.7,10.52-10.51v-31.44ZM33.96,33.15h22.79c1.45,0,2.62,1.18,2.62,2.62,0,1.55-1.25,2.8-2.8,2.8h-22.61c-1.5,0-2.71-1.21-2.71-2.71s1.21-2.71,2.71-2.71ZM68.75,46.65c0,1.5-1.21,2.71-2.71,2.71h-32.07c-1.5,0-2.71-1.21-2.71-2.71h0c0-1.5,1.21-2.71,2.71-2.71h32.07c1.5,0,2.71,1.21,2.71,2.71h0Z"/>
  <path class="cls-1" d="M24.62,60.64v19.59c0,3.24,3.82,4.95,6.24,2.8l19.06-16.96c1.62-1.44,1.66-3.92.16-5.43h-25.46Z"/>
</svg>