<?xml version="1.0" encoding="UTF-8"?>
<svg id="Layer_1" data-name="Layer 1" xmlns="http://www.w3.org/2000/svg" viewBox="0 0 100 100">
  <defs>
    <style>
      .cls-1 {
        fill: #000;
        stroke-width: 0px;
      }
    </style>
  </defs>
  <path class="cls-1" d="M36.85,77.7l-18.75,9.49c-2.5,1.26-5.6-.34-5.6-2.9V25.2c0-1.2.72-2.31,1.9-2.9l18.75-9.49c2.5-1.26,5.6.34,5.6,2.9v59.08c0,1.2-.72,2.31-1.9,2.9Z"/>
  <path class="cls-1" d="M85.6,77.7l-18.75,9.49c-2.5,1.26-5.6-.34-5.6-2.9V25.2c0-1.2.72-2.31,1.9-2.9l18.75-9.49c2.5-1.26,5.6.34,5.6,2.9v59.08c0,1.2-.72,2.31-1.9,2.9Z"/>
  <path class="cls-1" d="M43.58,77.7l10.71,9.49c1.43,1.26,3.2-.34,3.2-2.9V25.2c0-1.2-.41-2.31-1.08-2.9l-10.71-9.49c-1.43-1.26-3.2.34-3.2,2.9v59.08c0,1.2.41,2.31,1.08,2.9Z"/>
</svg>