<?xml version="1.0" encoding="UTF-8"?>
<svg id="Layer_1" data-name="Layer 1" xmlns="http://www.w3.org/2000/svg" viewBox="0 0 100 100">
  <defs>
    <style>
      .cls-1 {
        fill: #000;
        stroke-width: 0px;
      }
    </style>
  </defs>
  <path class="cls-1" d="M76.25,12.5H23.75c-6.21,0-11.25,5.04-11.25,11.25v52.5c0,6.21,5.04,11.25,11.25,11.25h52.5c6.21,0,11.25-5.04,11.25-11.25V23.75c0-6.21-5.04-11.25-11.25-11.25ZM83.75,75.35c0,4.64-3.76,8.4-8.4,8.4H24.65c-4.64,0-8.4-3.76-8.4-8.4V24.65c0-4.64,3.76-8.4,8.4-8.4h50.69c4.64,0,8.4,3.76,8.4,8.4v50.69Z"/>
</svg>