<?xml version="1.0" encoding="UTF-8"?>
<svg id="Layer_1" data-name="Layer 1" xmlns="http://www.w3.org/2000/svg" viewBox="0 0 100 100">
  <defs>
    <style>
      .cls-1 {
        fill: #000;
        stroke-width: 0px;
      }
    </style>
  </defs>
  <path class="cls-1" d="M23.48,23.48c-14.64,14.64-14.64,38.39,0,53.03,14.64,14.64,38.39,14.64,53.03,0,14.64-14.64,14.64-38.39,0-53.03-14.64-14.64-38.39-14.64-53.03,0ZM71.21,71.21c-11.72,11.72-30.71,11.72-42.42,0-11.72-11.72-11.72-30.71,0-42.42,11.72-11.72,30.71-11.72,42.42,0,11.72,11.72,11.72,30.71,0,42.42Z"/>
  <rect class="cls-1" x="46.25" y="14.56" width="7.5" height="70.88" rx="3.75" ry="3.75" transform="translate(50 -20.71) rotate(45)"/>
</svg>