<?xml version="1.0" encoding="UTF-8"?>
<svg id="Layer_1" data-name="Layer 1" xmlns="http://www.w3.org/2000/svg" viewBox="0 0 100 100">
  <defs>
    <style>
      .cls-1 {
        fill: #000;
        stroke-width: 0px;
      }
    </style>
  </defs>
  <path class="cls-1" d="M29.38,72.75V19.73c-4.37,1.55-7.5,5.7-7.5,10.6v45.67c0,6.21,5.04,11.25,11.25,11.25h24.97c4.71,0,8.74-2.9,10.41-7h-31.64c-4.14,0-7.5-3.36-7.5-7.5Z"/>
  <path class="cls-1" d="M74.37,12.75h-37.5c-2.07,0-3.75,1.68-3.75,3.75v56.25c0,2.07,1.68,3.75,3.75,3.75h37.5c2.07,0,3.75-1.68,3.75-3.75V16.5c0-2.07-1.68-3.75-3.75-3.75ZM42.37,33.14h18.81c1.2,0,2.17.97,2.17,2.17,0,1.28-1.03,2.31-2.31,2.31h-18.67c-1.24,0-2.24-1-2.24-2.24s1-2.24,2.24-2.24ZM68.85,55.43h-26.48c-1.24,0-2.24-1-2.24-2.24s1-2.24,2.24-2.24h26.48c1.24,0,2.24,1,2.24,2.24s-1,2.24-2.24,2.24ZM68.85,46.52h-26.48c-1.24,0-2.24-1-2.24-2.24s1-2.24,2.24-2.24h26.48c1.24,0,2.24,1,2.24,2.24s-1,2.24-2.24,2.24Z"/>
</svg>