<?xml version="1.0" encoding="UTF-8"?>
<svg id="Layer_1" data-name="Layer 1" xmlns="http://www.w3.org/2000/svg" viewBox="0 0 100 100">
  <defs>
    <style>
      .cls-1 {
        fill: #000;
        stroke-width: 0px;
      }
    </style>
  </defs>
  <path class="cls-1" d="M71.19,29.41c-.02-.08-.06-.16-.11-.24-2.58-9.59-11.32-16.65-21.73-16.65-12.43,0-22.5,10.07-22.5,22.5s10.07,22.5,22.5,22.5c5.85,0,11.18-2.23,15.18-5.89-3.87,15.55-17.45,27.27-33.93,28.33v.02c-.77,0-1.49.24-2.09.64-1,.67-1.65,1.81-1.65,3.11s.66,2.43,1.65,3.11c.57.38,1.24.6,1.97.63.04,0,.08.01.13.01.14,0,.26-.03.4-.04.17-.02.32-.06.48-.1-.14.05-.29.08-.48.1,23.52-1.47,42.14-21.01,42.14-44.9,0-4.57-.68-8.98-1.95-13.14ZM30.77,79.99c.11,0,.21.01.3.03-.1-.01-.2-.03-.3-.03Z"/>
</svg>