<?xml version="1.0" encoding="UTF-8"?>
<svg id="Layer_1" data-name="Layer 1" xmlns="http://www.w3.org/2000/svg" viewBox="0 0 100 100">
  <defs>
    <style>
      .cls-1 {
        fill: #000;
        stroke-width: 0px;
      }
    </style>
  </defs>
  <rect class="cls-1" x="39.17" y="16.31" width="7.5" height="67.53"/>
  <g>
    <rect class="cls-1" x="51.11" y="57.59" width="7.5" height="31.77" transform="translate(74.37 -16.12) rotate(49.03)"/>
    <path class="cls-1" d="M48.72,23.37h.03c2.06,0,3.74,1.67,3.74,3.74v44.68h-7.5V27.11c0-2.06,1.67-3.74,3.74-3.74Z" transform="translate(-19.15 53.18) rotate(-49.03)"/>
    <circle class="cls-1" cx="42.91" cy="83.81" r="3.75"/>
    <circle class="cls-1" cx="66.72" cy="63.19" r="3.75"/>
  </g>
  <g>
    <rect class="cls-1" x="51.11" y="10.64" width="7.5" height="31.77" transform="translate(-1.13 50.56) rotate(-49.03)"/>
    <path class="cls-1" d="M44.98,28.21h7.5v44.68c0,2.06-1.67,3.74-3.74,3.74h-.03c-2.06,0-3.74-1.67-3.74-3.74V28.21h0Z" transform="translate(56.36 -18.75) rotate(49.03)"/>
    <path class="cls-1" d="M42.91,19.94c-2.07,0-3.75-1.68-3.75-3.75s1.68-3.75,3.75-3.75,3.75,1.68,3.75,3.75-1.68,3.75-3.75,3.75Z"/>
    <circle class="cls-1" cx="66.72" cy="36.81" r="3.75"/>
  </g>
</svg>