<?xml version="1.0" encoding="UTF-8"?>
<svg id="Layer_1" data-name="Layer 1" xmlns="http://www.w3.org/2000/svg" viewBox="0 0 100 100">
  <defs>
    <style>
      .cls-1 {
        fill: #000;
        stroke-width: 0px;
      }
    </style>
  </defs>
  <g>
    <rect class="cls-1" x="72.5" y="72.47" width="7.5" height="22.5" rx="3.75" ry="3.75" transform="translate(160.29 7.83) rotate(90.25)"/>
    <rect class="cls-1" x="79.97" y="65" width="7.5" height="22.5" rx="3.75" ry="3.75" transform="translate(167.1 152.86) rotate(-179.75)"/>
    <rect class="cls-1" x="69.26" y="58.01" width="7.5" height="30" rx="3.75" ry="3.75" transform="translate(-30.24 73.01) rotate(-45)"/>
  </g>
  <g>
    <rect class="cls-1" x="72.5" y="5.03" width="7.5" height="22.5" rx="3.75" ry="3.75" transform="translate(60.29 92.6) rotate(-90.25)"/>
    <rect class="cls-1" x="79.97" y="12.5" width="7.5" height="22.5" rx="3.75" ry="3.75" transform="translate(167.53 47.14) rotate(179.75)"/>
    <rect class="cls-1" x="69.26" y="11.99" width="7.5" height="30" rx="3.75" ry="3.75" transform="translate(40.47 -43.72) rotate(45)"/>
  </g>
  <g>
    <rect class="cls-1" x="20" y="72.47" width="7.5" height="22.5" rx="3.75" ry="3.75" transform="translate(107.36 59.61) rotate(89.75)"/>
    <rect class="cls-1" x="12.53" y="65" width="7.5" height="22.5" rx="3.75" ry="3.75" transform="translate(-.33 .07) rotate(-.25)"/>
    <rect class="cls-1" x="23.24" y="58.01" width="7.5" height="30" rx="3.75" ry="3.75" transform="translate(-5.54 143.72) rotate(-135)"/>
  </g>
  <g>
    <rect class="cls-1" x="20" y="5.03" width="7.5" height="22.5" rx="3.75" ry="3.75" transform="translate(7.37 39.96) rotate(-89.75)"/>
    <rect class="cls-1" x="12.53" y="12.5" width="7.5" height="22.5" rx="3.75" ry="3.75" transform="translate(.1 -.07) rotate(.25)"/>
    <rect class="cls-1" x="23.24" y="11.99" width="7.5" height="30" rx="3.75" ry="3.75" transform="translate(65.17 26.99) rotate(135)"/>
  </g>
</svg>