<?xml version="1.0" encoding="UTF-8"?>
<svg id="Layer_1" data-name="Layer 1" xmlns="http://www.w3.org/2000/svg" viewBox="0 0 100 100">
  <defs>
    <style>
      .cls-1 {
        fill: #000;
        stroke-width: 0px;
      }
    </style>
  </defs>
  <rect class="cls-1" x="46.25" y="-10" width="7.5" height="52.5" rx="3.65" ry="3.65" transform="translate(66.25 -33.75) rotate(90)"/>
  <rect class="cls-1" x="46.25" y="57.5" width="7.5" height="52.5" rx="3.65" ry="3.65" transform="translate(133.75 33.75) rotate(90)"/>
  <g>
    <rect class="cls-1" x="51.37" y="21.38" width="7.5" height="22.5" rx="3.75" ry="3.75" transform="translate(-6.99 48.27) rotate(-44.75)"/>
    <rect class="cls-1" x="40.81" y="21.38" width="7.5" height="22.5" rx="3.75" ry="3.75" transform="translate(36.36 -21.99) rotate(45.25)"/>
    <rect class="cls-1" x="46.09" y="25.24" width="7.5" height="28.46" rx="3.65" ry="3.65" transform="translate(99.69 78.94) rotate(-180)"/>
  </g>
  <g>
    <rect class="cls-1" x="51.37" y="55.95" width="7.5" height="22.5" rx="3.75" ry="3.75" transform="translate(63.29 -19.33) rotate(44.75)"/>
    <rect class="cls-1" x="40.81" y="55.95" width="7.5" height="22.5" rx="3.75" ry="3.75" transform="translate(-34.53 51.53) rotate(-45.25)"/>
    <rect class="cls-1" x="46.09" y="46.12" width="7.5" height="28.46" rx="3.65" ry="3.65" transform="translate(99.69 120.7) rotate(180)"/>
  </g>
</svg>