<?xml version="1.0" encoding="UTF-8"?>
<svg id="Layer_1" data-name="Layer 1" xmlns="http://www.w3.org/2000/svg" viewBox="0 0 100 100">
  <defs>
    <style>
      .cls-1 {
        fill: #000;
        stroke-width: 0px;
      }
    </style>
  </defs>
  <rect class="cls-1" x="69.98" y="55.8" width="7.5" height="35.85" rx="3.75" ry="3.75" transform="translate(-30.54 73.73) rotate(-45)"/>
  <path class="cls-1" d="M42.5,12.5c-16.57,0-30,13.43-30,30s13.43,30,30,30,30-13.43,30-30-13.43-30-30-30ZM55.62,44.38h-11.25v11.25c0,1.04-.84,1.87-1.87,1.87s-1.87-.84-1.87-1.87v-11.25h-11.25c-1.04,0-1.87-.84-1.87-1.87s.84-1.87,1.87-1.87h11.25v-11.25c0-1.04.84-1.87,1.87-1.87s1.87.84,1.87,1.87v11.25h11.25c1.04,0,1.87.84,1.87,1.87s-.84,1.87-1.87,1.87Z"/>
</svg>