<?xml version="1.0" encoding="UTF-8"?>
<svg id="Layer_1" data-name="Layer 1" xmlns="http://www.w3.org/2000/svg" viewBox="0 0 100 100">
  <defs>
    <style>
      .cls-1 {
        fill: #000;
        stroke-width: 0px;
      }
    </style>
  </defs>
  <path class="cls-1" d="M42.5,31.58h-22.5c-4.14,0-7.5,3.36-7.5,7.5v22.5c0,4.14,3.36,7.5,7.5,7.5h22.5c4.14,0,7.5-3.36,7.5-7.5v-22.5c0-4.14-3.36-7.5-7.5-7.5ZM35.03,60.94l-3.72-6.42h-.18l-3.69,6.42h-6.36l6.53-10.61-6.33-10.61h6.27l3.57,6.33h.18l3.63-6.33h6.24l-6.36,10.61,6.59,10.61h-6.39Z"/>
  <path class="cls-1" d="M80,12.5h-45c-4.14,0-7.5,3.36-7.5,7.5v14.24c2.75-.44,6.04.88,7.5,3.33v-13.82c0-2.07,1.68-3.75,3.75-3.75h37.5c2.07,0,3.75,1.68,3.75,3.75v52.5c0,2.07-1.68,3.75-3.75,3.75h-37.5c-2.07,0-3.75-1.68-3.75-3.75v-13.02c-1.23,1.19-2.88,1.93-4.83,1.93-.91,0-1.82-.2-2.67-.56v15.4c0,4.14,3.36,7.5,7.5,7.5h45c4.14,0,7.5-3.36,7.5-7.5V20c0-4.14-3.36-7.5-7.5-7.5Z"/>
  <g>
    <rect class="cls-1" x="52.47" y="32.96" width="23.26" height="7.5" rx="3.75" ry="3.75"/>
    <rect class="cls-1" x="52.47" y="46.58" width="23.26" height="7.5" rx="3.75" ry="3.75"/>
    <rect class="cls-1" x="52.47" y="60.21" width="23.26" height="7.5" rx="3.75" ry="3.75"/>
  </g>
</svg>