<?xml version="1.0" encoding="UTF-8"?>
<svg id="Layer_1" data-name="Layer 1" xmlns="http://www.w3.org/2000/svg" viewBox="0 0 100 100">
  <defs>
    <style>
      .cls-1 {
        fill: #000;
        stroke-width: 0px;
      }
    </style>
  </defs>
  <ellipse class="cls-1" cx="50" cy="27.61" rx="26.25" ry="15"/>
  <g>
    <path class="cls-1" d="M50.17,65.1c10.29,0,22.09-4.65,26.08-11.26v-12.82c0-1.56-1.79-2.48-3.04-1.53-5.5,4.2-13.86,6.88-23.21,6.88s-17.71-2.68-23.21-6.88c-1.24-.95-3.04-.03-3.04,1.53v11.09c1.75,7.33,13.11,12.99,26.42,12.99Z"/>
    <path class="cls-1" d="M76.25,62.76c-.46-1.07-1.84-1.57-2.87-.79-5.5,4.2-13.86,6.88-23.21,6.88s-18.13-2.68-23.63-6.88c-.97-.74-2.26-.34-2.79.61v9.22h.03c-.01.2-.03.39-.03.59,0,8.28,11.75,15,26.25,15s26.25-6.72,26.25-15c0-.2-.01-.39-.03-.59h.03v-9.05Z"/>
  </g>
</svg>