<?xml version="1.0" encoding="UTF-8"?>
<svg id="Layer_1" data-name="Layer 1" xmlns="http://www.w3.org/2000/svg" viewBox="0 0 100 100">
  <defs>
    <style>
      .cls-1 {
        fill: #000;
        stroke-width: 0px;
      }
    </style>
  </defs>
  <path class="cls-1" d="M86.88,41.5L51.11,12.89c-.64-.51-1.58-.51-2.22,0L13.12,41.5c-1.24.99-.5,2.91,1.11,2.91h7.09c.95,0,1.73.74,1.73,1.65v39.79c0,.91.77,1.65,1.73,1.65h11.97c.95,0,1.73-.74,1.73-1.65v-30.39c0-.91.77-1.65,1.73-1.65h19.6c.95,0,1.73.74,1.73,1.65v30.39c0,.91.77,1.65,1.73,1.65h11.97c.95,0,1.73-.74,1.73-1.65v-39.79c0-.91.77-1.65,1.73-1.65h7.09c1.61,0,2.35-1.92,1.11-2.91Z"/>
</svg>