<?xml version="1.0" encoding="UTF-8"?>
<svg id="Layer_1" data-name="Layer 1" xmlns="http://www.w3.org/2000/svg" viewBox="0 0 100 100">
  <defs>
    <style>
      .cls-1 {
        fill: #000;
        stroke-width: 0px;
      }
    </style>
  </defs>
  <path class="cls-1" d="M17.4,85.45l26.72-8.58c2.67-.86,3.49-4.24,1.5-6.22l-18.14-18.14c-1.98-1.98-5.36-1.17-6.22,1.5l-8.58,26.72c-.93,2.91,1.81,5.65,4.72,4.72Z"/>
  <path class="cls-1" d="M50,14.37c-20.71,0-37.5,15.95-37.5,35.63s16.79,35.63,37.5,35.63,37.5-15.95,37.5-35.63S70.71,14.37,50,14.37ZM33.31,53.75c-2.07,0-3.75-1.68-3.75-3.75s1.68-3.75,3.75-3.75,3.75,1.68,3.75,3.75-1.68,3.75-3.75,3.75ZM50,53.75c-2.07,0-3.75-1.68-3.75-3.75s1.68-3.75,3.75-3.75,3.75,1.68,3.75,3.75-1.68,3.75-3.75,3.75ZM66.69,53.75c-2.07,0-3.75-1.68-3.75-3.75s1.68-3.75,3.75-3.75,3.75,1.68,3.75,3.75-1.68,3.75-3.75,3.75Z"/>
</svg>