<?xml version="1.0" encoding="UTF-8"?>
<svg id="Layer_1" data-name="Layer 1" xmlns="http://www.w3.org/2000/svg" viewBox="0 0 100 100">
  <defs>
    <style>
      .cls-1 {
        fill: #000;
        stroke-width: 0px;
      }
    </style>
  </defs>
  <path class="cls-1" d="M54.49,15.19c-2.66-1.48-6.02-1.48-8.68,0,0,0-26.18,14.6-32.07,17.89-.51.29-.51,1.02,0,1.31l32.07,17.94c2.66,1.48,6.02,1.48,8.68,0,0,0,25.99-14.5,31.85-17.77.51-.29.51-1.02,0-1.31l-31.85-18.07Z"/>
  <path class="cls-1" d="M45.05,56.82l-31.44-17.52c-.5-.28-1.12.08-1.12.66v38.47c0,4.14,3.36,7.5,7.5,7.5h60c4.14,0,7.5-3.36,7.5-7.5v-38.28c0-.57-.62-.93-1.12-.66l-31.08,17.33c-3.19,1.78-7.07,1.78-10.25,0Z"/>
</svg>