<?xml version="1.0" encoding="UTF-8"?>
<svg id="Layer_1" data-name="Layer 1" xmlns="http://www.w3.org/2000/svg" viewBox="0 0 100 100">
  <defs>
    <style>
      .cls-1 {
        fill: #000;
        stroke-width: 0px;
      }
    </style>
  </defs>
  <circle class="cls-1" cx="49.9" cy="83.71" r="3.75"/>
  <path class="cls-1" d="M72.36,32.55c-1.13-10.54-9.72-18.97-20.28-19.92-13.28-1.2-24.44,9.15-24.58,22.14-.02,2.02,1.43,3.84,3.44,4,2.21.18,4.06-1.56,4.06-3.74,0-8.55,7.16-15.43,15.81-14.98,7.57.4,13.77,6.6,14.17,14.17.42,8.04-4.39,14.78-11.94,15.69-.09.01-.17.03-.25.03-3.68.48-6.52,3.62-6.52,7.43v.13s-.01,15.08-.01,15.08c0,2.25,1.68,4.08,3.75,4.08s3.75-1.83,3.75-4.08v-12.41c0-1.68,1.12-3.12,2.73-3.61,1.51-.45,2.95-1.06,4.31-1.81,7.65-4.19,12.6-12.68,11.58-22.23Z"/>
</svg>