<?xml version="1.0" encoding="UTF-8"?>
<svg id="Layer_1" data-name="Layer 1" xmlns="http://www.w3.org/2000/svg" viewBox="0 0 100 100">
  <defs>
    <style>
      .cls-1 {
        fill: #000;
        stroke-width: 0px;
      }
    </style>
  </defs>
  <path class="cls-1" d="M76.25,12.5H23.75c-6.21,0-11.25,5.04-11.25,11.25v52.5c0,6.21,5.04,11.25,11.25,11.25h52.5c6.21,0,11.25-5.04,11.25-11.25V23.75c0-6.21-5.04-11.25-11.25-11.25ZM66.08,41.88l-18.42,18.42c-.06.1-.14.19-.22.27l-.24.24c-.67.67-1.74.67-2.41,0l-.15-.15-10.77-10.77c-.67-.67-.67-1.74,0-2.41l.24-.24c.67-.67,1.74-.67,2.41,0l9.45,9.45,17.46-17.46c.73-.73,1.92-.73,2.65,0s.73,1.92,0,2.65Z"/>
</svg>