<?xml version="1.0" encoding="UTF-8"?>
<svg id="Layer_1" data-name="Layer 1" xmlns="http://www.w3.org/2000/svg" viewBox="0 0 100 100">
  <defs>
    <style>
      .cls-1 {
        fill: #000;
        stroke-width: 0px;
      }
    </style>
  </defs>
  <g>
    <g>
      <rect class="cls-1" x="17.26" y="12.48" width="7.5" height="22.5" rx="3.75" ry="3.75" transform="translate(42.13 47.37) rotate(179.75)"/>
      <rect class="cls-1" x="24.8" y="19.95" width="7.5" height="22.5" rx="3.75" ry="3.75" transform="translate(59.62 2.52) rotate(89.75)"/>
    </g>
    <g>
      <path class="cls-1" d="M13.72,40.56c-.41,1.64,7.17,2.2,7.24,1.96-3.41,13.19,2.53,27.47,15.12,34.07,14.68,7.69,32.81,2.02,40.49-12.65,7.69-14.68,2.02-32.81-12.65-40.49-12.84-6.73-28.33-3.23-37.15,7.58-1.26,1.54-7.42-2.77-5.86-4.68,11.02-13.57,30.41-17.97,46.49-9.54,18.34,9.61,25.43,32.27,15.82,50.62-9.61,18.34-32.27,25.43-50.62,15.82-15.77-8.26-23.21-26.16-18.89-42.67"/>
      <path class="cls-1" d="M20.67,43.21c-.96,1.83-3.23,2.54-5.06,1.58s-2.54-3.23-1.58-5.06,3.23-2.54,5.06-1.58c1.6.84,2.34,2.67,1.87,4.34,0,.01,0,.02,0,.03-.07.24-.16.47-.28.69Z"/>
      <path class="cls-1" d="M20.96,42.49s0,.02,0,.03c0-.01,0-.02,0-.03Z"/>
    </g>
  </g>
  <path class="cls-1" d="M47.28,51.8l7.85,7.85c1.46,1.46,3.84,1.46,5.3,0s1.46-3.84,0-5.3l-6.75-6.75v-20.19c0-2.07-1.68-3.75-3.75-3.75s-3.75,1.68-3.75,3.75v21.67s0,.02,0,.04c0,.97.35,1.95,1.09,2.69Z"/>
</svg>