<?xml version="1.0" encoding="UTF-8"?>
<svg id="Layer_1" data-name="Layer 1" xmlns="http://www.w3.org/2000/svg" viewBox="0 0 100 100">
  <defs>
    <style>
      .cls-1 {
        fill: #000;
        stroke-width: 0px;
      }
    </style>
  </defs>
  <path class="cls-1" d="M86.54,72.27l-30.05-52.04c-2.89-5-10.1-5-12.99,0l-30.05,52.04c-2.89,5,.72,11.25,6.49,11.25h60.1c5.77,0,9.38-6.25,6.49-11.25ZM50,68.37c-1.04,0-1.87-.84-1.87-1.87s.84-1.87,1.87-1.87,1.87.84,1.87,1.87-.84,1.87-1.87,1.87ZM51.87,56c0,1.04-.84,1.87-1.87,1.87s-1.87-.84-1.87-1.87v-22.5c0-1.04.84-1.87,1.87-1.87s1.87.84,1.87,1.87v22.5Z"/>
</svg>