<?xml version="1.0" encoding="UTF-8"?>
<svg id="Layer_1" data-name="Layer 1" xmlns="http://www.w3.org/2000/svg" viewBox="0 0 100 100">
  <defs>
    <style>
      .cls-1 {
        fill: #000;
        stroke-width: 0px;
      }
    </style>
  </defs>
  <path class="cls-1" d="M76.25,12.5H23.75c-6.21,0-11.25,5.04-11.25,11.25v52.5c0,6.21,5.04,11.25,11.25,11.25h52.5c6.21,0,11.25-5.04,11.25-11.25V23.75c0-6.21-5.04-11.25-11.25-11.25ZM80,73.6c0,3.53-2.87,6.4-6.4,6.4H26.4c-3.53,0-6.4-2.87-6.4-6.4V26.4c0-3.53,2.87-6.4,6.4-6.4h47.2c3.53,0,6.4,2.86,6.4,6.4v47.2Z"/>
  <path class="cls-1" d="M33.13,51.87h15v15c0,1.04.84,1.87,1.87,1.87s1.87-.84,1.87-1.87v-15h15c1.04,0,1.87-.84,1.87-1.87s-.84-1.87-1.87-1.87h-15v-15c0-1.04-.84-1.87-1.87-1.87s-1.87.84-1.87,1.87v15h-15c-1.04,0-1.87.84-1.87,1.87s.84,1.87,1.87,1.87Z"/>
</svg>