<?xml version="1.0" encoding="UTF-8"?>
<svg id="Layer_1" data-name="Layer 1" xmlns="http://www.w3.org/2000/svg" viewBox="0 0 100 100">
  <defs>
    <style>
      .cls-1 {
        fill: #000;
        stroke-width: 0px;
      }
    </style>
  </defs>
  <path class="cls-1" d="M84.81,36.06c1.69-2.43,2.69-5.37,2.69-8.56,0-8.28-6.72-15-15-15-3.18,0-6.13,1-8.56,2.69,9.49,3.81,17.06,11.37,20.87,20.87Z"/>
  <path class="cls-1" d="M36.06,15.19c-2.42-1.69-5.37-2.69-8.56-2.69-8.28,0-15,6.72-15,15,0,3.18,1,6.13,2.69,8.56,3.81-9.49,11.37-17.06,20.87-20.87Z"/>
  <path class="cls-1" d="M50,53.62c-8.28,0-15-6.72-15-15s6.72-15,15-15,15,6.72,15,15-6.72,15-15,15Z"/>
  <circle class="cls-1" cx="50" cy="38.62" r="15"/>
  <path class="cls-1" d="M65,65c0-4.14-3.36-7.5-7.5-7.5h-15c-4.14,0-7.5,3.36-7.5,7.5v15c0,2.04.82,3.88,2.13,5.23,4.01,1.47,8.35,2.27,12.87,2.27s8.85-.8,12.87-2.27c1.32-1.35,2.13-3.2,2.13-5.23v-15Z"/>
  <path class="cls-1" d="M58.58,21.95c6.04,3.11,10.17,9.41,10.17,16.67,0,1.13-.11,2.24-.3,3.32,1.29.36,2.64.56,4.05.56,5.1,0,9.6-2.55,12.31-6.44-3.81-9.49-11.37-17.06-20.87-20.87-2.39,1.67-4.27,4.01-5.36,6.76Z"/>
  <path class="cls-1" d="M80,46.38h-12.93c-1.34,2.94-3.42,5.48-6,7.37h.18c4.14,0,7.5,3.36,7.5,7.5v15.13h7.9c6.12-6.18,10.1-14.48,10.75-23.7-.58-3.57-3.66-6.29-7.39-6.29Z"/>
  <path class="cls-1" d="M27.5,42.5c1.4,0,2.76-.2,4.05-.56-.19-1.08-.3-2.19-.3-3.32,0-7.26,4.13-13.55,10.17-16.67-1.09-2.75-2.98-5.09-5.36-6.76-9.49,3.81-17.06,11.37-20.87,20.87,2.71,3.89,7.21,6.44,12.31,6.44Z"/>
  <path class="cls-1" d="M31.25,61.25c0-4.14,3.36-7.5,7.5-7.5h.18c-2.58-1.89-4.66-4.43-6-7.37h-12.93c-3.73,0-6.82,2.73-7.39,6.29.65,9.22,4.63,17.52,10.75,23.7h7.9v-15.13Z"/>
</svg>