<?xml version="1.0" encoding="UTF-8"?>
<svg id="Layer_1" data-name="Layer 1" xmlns="http://www.w3.org/2000/svg" viewBox="0 0 100 100">
  <defs>
    <style>
      .cls-1 {
        fill: #000;
        stroke-width: 0px;
      }
    </style>
  </defs>
  <path class="cls-1" d="M65,12.5h-30c-6.21,0-11.25,5.04-11.25,11.25v62.38c0,.75.61,1.36,1.36,1.36.36,0,.71-.14.96-.4l22.96-22.96c.53-.53,1.39-.53,1.93,0l22.96,22.96c.26.26.6.4.96.4.75,0,1.36-.61,1.36-1.36V23.75c0-6.21-5.04-11.25-11.25-11.25ZM50,25.24c-2.07,0-3.75-1.68-3.75-3.75s1.68-3.75,3.75-3.75,3.75,1.68,3.75,3.75-1.68,3.75-3.75,3.75Z"/>
</svg>