<?xml version="1.0" encoding="UTF-8"?>
<svg id="Layer_1" data-name="Layer 1" xmlns="http://www.w3.org/2000/svg" viewBox="0 0 100 100">
  <defs>
    <style>
      .cls-1 {
        fill: #000;
        stroke-width: 0px;
      }
    </style>
  </defs>
  <path class="cls-1" d="M50,12.5c-20.71,0-37.5,16.79-37.5,37.5s16.79,37.5,37.5,37.5,37.5-16.79,37.5-37.5S70.71,12.5,50,12.5ZM66.87,51.86h-15v14.85c0,1.03-.84,1.86-1.87,1.86s-1.87-.83-1.87-1.86v-14.85h-15c-1.04,0-1.87-.83-1.87-1.86s.84-1.86,1.87-1.86h15v-14.85c0-1.03.84-1.86,1.87-1.86s1.87.83,1.87,1.86v14.85h15c1.04,0,1.87.83,1.87,1.86s-.84,1.86-1.87,1.86Z"/>
</svg>