<?xml version="1.0" encoding="UTF-8"?>
<svg id="Layer_1" data-name="Layer 1" xmlns="http://www.w3.org/2000/svg" viewBox="0 0 100 100">
  <defs>
    <style>
      .cls-1 {
        fill: #000;
        stroke-width: 0px;
      }
    </style>
  </defs>
  <path class="cls-1" d="M28.23,60.46h18.89c.44,0,.8-.36.8-.8v-19.32c0-.44-.36-.8-.8-.8h-18.89c-.41,0-.75.3-.8.71-.37,3.2-.56,6.45-.56,9.75s.19,6.55.56,9.75c.05.4.39.71.8.71Z"/>
  <path class="cls-1" d="M22.85,39.54h-8.25c-.36,0-.68.24-.78.59-.86,3.15-1.32,6.45-1.32,9.87s.47,6.72,1.32,9.87c.09.35.42.59.78.59h8.25c.47,0,.84-.41.79-.88-.34-3.15-.52-6.34-.52-9.58s.18-6.43.52-9.58c.05-.47-.31-.88-.79-.88Z"/>
  <path class="cls-1" d="M74.82,60.46h10.58c.36,0,.68-.24.78-.59.86-3.15,1.32-6.45,1.32-9.87s-.47-6.72-1.32-9.87c-.09-.35-.42-.59-.78-.59h-10.58c-.47,0-.84.41-.79.88.34,3.15.52,6.34.52,9.58s-.18,6.43-.52,9.58c-.05.47.31.88.79.88Z"/>
  <path class="cls-1" d="M69.44,39.54h-16.56c-.44,0-.8.36-.8.8v19.32c0,.44.36.8.8.8h16.56c.41,0,.75-.3.8-.71.37-3.2.56-6.45.56-9.75s-.19-6.55-.56-9.75c-.05-.4-.39-.71-.8-.71Z"/>
  <path class="cls-1" d="M52.08,65.42v21.15c0,.46.4.84.86.8,3.47-.27,6.81-1.02,9.96-2.17.21-.08.37-.23.46-.43,2.73-6.06,4.76-12.49,6.01-19.2.09-.49-.29-.95-.79-.95h-15.7c-.44,0-.8.36-.8.8Z"/>
  <path class="cls-1" d="M83.31,64.62h-9.3c-.39,0-.72.28-.78.66-.92,5.27-2.3,10.38-4.1,15.29-.26.71.54,1.36,1.18.95,5.94-3.83,10.73-9.3,13.73-15.77.24-.53-.15-1.13-.73-1.13Z"/>
  <path class="cls-1" d="M15.96,65.75c2.44,5.26,6.07,9.86,10.53,13.46.63.5,1.52-.1,1.27-.86-1.42-4.22-2.54-8.58-3.32-13.06-.07-.38-.39-.66-.78-.66h-6.97c-.58,0-.97.6-.73,1.12Z"/>
  <path class="cls-1" d="M47.92,86.57v-21.15c0-.44-.36-.8-.8-.8h-18.02c-.5,0-.88.46-.79.95,1.16,6.28,3.02,12.31,5.49,18.02.08.18.23.34.41.42,3.96,1.84,8.29,3.01,12.86,3.37.46.04.86-.34.86-.8Z"/>
  <path class="cls-1" d="M52.88,35.38h15.7c.5,0,.88-.46.79-.95-1.25-6.71-3.28-13.15-6.01-19.2-.09-.2-.26-.36-.46-.43-3.14-1.15-6.48-1.9-9.96-2.17-.46-.04-.86.34-.86.8v21.15c0,.44.36.8.8.8Z"/>
  <path class="cls-1" d="M84.04,34.25c-3-6.47-7.79-11.93-13.73-15.77-.64-.41-1.44.23-1.18.95,1.8,4.91,3.18,10.02,4.1,15.29.07.38.39.66.78.66h9.3c.58,0,.98-.6.73-1.13Z"/>
  <path class="cls-1" d="M47.92,34.58V13.43c0-.46-.4-.84-.86-.8-4.56.35-8.9,1.53-12.86,3.37-.18.08-.33.24-.41.42-2.46,5.71-4.32,11.74-5.49,18.02-.09.49.29.95.79.95h18.02c.44,0,.8-.36.8-.8Z"/>
  <path class="cls-1" d="M16.69,35.38h6.97c.39,0,.72-.28.78-.66.78-4.48,1.89-8.84,3.32-13.06.26-.76-.64-1.37-1.27-.86-4.47,3.6-8.09,8.2-10.53,13.46-.24.52.15,1.12.73,1.12Z"/>
</svg>