<?xml version="1.0" encoding="UTF-8"?>
<svg id="Layer_1" data-name="Layer 1" xmlns="http://www.w3.org/2000/svg" viewBox="0 0 100 100">
  <defs>
    <style>
      .cls-1 {
        fill: #000;
        stroke-width: 0px;
      }
    </style>
  </defs>
  <path class="cls-1" d="M50,12.5c-20.71,0-37.5,16.79-37.5,37.5s16.79,37.5,37.5,37.5,37.5-16.79,37.5-37.5S70.71,12.5,50,12.5ZM44.84,66.87c0,1.04-.84,1.87-1.87,1.87s-1.87-.84-1.87-1.87v-33.75c0-1.04.84-1.87,1.87-1.87s1.87.84,1.87,1.87v33.75ZM58.91,66.87c0,1.04-.84,1.87-1.87,1.87s-1.87-.84-1.87-1.87v-33.75c0-1.04.84-1.87,1.87-1.87s1.87.84,1.87,1.87v33.75Z"/>
</svg>