<?xml version="1.0" encoding="UTF-8"?>
<svg id="Layer_1" data-name="Layer 1" xmlns="http://www.w3.org/2000/svg" viewBox="0 0 100 100">
  <defs>
    <style>
      .cls-1 {
        fill: #000;
        stroke-width: 0px;
      }
    </style>
  </defs>
  <g>
    <rect class="cls-1" x="74.67" y="44.05" width="7.5" height="22.5" rx="3.75" ry="3.75" transform="translate(62.48 -39.32) rotate(45.25)"/>
    <rect class="cls-1" x="74.67" y="33.49" width="7.5" height="22.5" rx="3.75" ry="3.75" transform="translate(165.62 21.3) rotate(135.25)"/>
    <rect class="cls-1" x="67.83" y="35.79" width="7.5" height="28.46" rx="3.65" ry="3.65" transform="translate(21.55 121.6) rotate(-90)"/>
  </g>
  <g>
    <rect class="cls-1" x="17.83" y="44.05" width="7.5" height="22.5" rx="3.75" ry="3.75" transform="translate(76.04 78.92) rotate(134.75)"/>
    <rect class="cls-1" x="17.83" y="33.49" width="7.5" height="22.5" rx="3.75" ry="3.75" transform="translate(37.76 -2.22) rotate(44.75)"/>
    <rect class="cls-1" x="24.67" y="35.79" width="7.5" height="28.46" rx="3.65" ry="3.65" transform="translate(-21.6 78.45) rotate(-90)"/>
  </g>
  <g>
    <rect class="cls-1" x="40.95" y="67.17" width="7.5" height="22.5" rx="3.75" ry="3.75" transform="translate(131.65 102.64) rotate(135.25)"/>
    <rect class="cls-1" x="51.51" y="67.17" width="7.5" height="22.5" rx="3.75" ry="3.75" transform="translate(38.47 172.88) rotate(-134.75)"/>
    <rect class="cls-1" x="46.23" y="57.34" width="7.5" height="28.46" rx="3.65" ry="3.65"/>
  </g>
  <g>
    <rect class="cls-1" x="40.95" y="10.33" width="7.5" height="22.5" rx="3.75" ry="3.75" transform="translate(61.25 68.37) rotate(-135.25)"/>
    <rect class="cls-1" x="51.51" y="10.33" width="7.5" height="22.5" rx="3.75" ry="3.75" transform="translate(109.49 -2.47) rotate(134.75)"/>
    <rect class="cls-1" x="46.23" y="14.19" width="7.5" height="28.46" rx="3.65" ry="3.65"/>
  </g>
</svg>