<?xml version="1.0" encoding="UTF-8"?>
<svg id="Layer_1" data-name="Layer 1" xmlns="http://www.w3.org/2000/svg" viewBox="0 0 100 100">
  <defs>
    <style>
      .cls-1 {
        fill: #000;
        stroke-width: 0px;
      }
    </style>
  </defs>
  <path class="cls-1" d="M68.75,20H31.25c-4.14,0-7.5,3.36-7.5,7.5v52.5c0,4.14,3.36,7.5,7.5,7.5h37.5c4.14,0,7.5-3.36,7.5-7.5V27.5c0-4.14-3.36-7.5-7.5-7.5ZM47.29,74.77h-13.33c-1.5,0-2.71-1.21-2.71-2.71s1.21-2.71,2.71-2.71h13.33c1.5,0,2.71,1.21,2.71,2.71s-1.21,2.71-2.71,2.71ZM66.04,64.18h-32.07c-1.5,0-2.71-1.21-2.71-2.71s1.21-2.71,2.71-2.71h32.07c1.5,0,2.71,1.21,2.71,2.71s-1.21,2.71-2.71,2.71ZM31.25,50.69c0-1.5,1.21-2.71,2.71-2.71h22.79c1.45,0,2.63,1.18,2.63,2.62h0c0,1.55-1.25,2.8-2.8,2.8h-22.61c-1.5,0-2.71-1.21-2.71-2.71ZM66.04,42.8h-32.07c-1.5,0-2.71-1.21-2.71-2.71s1.21-2.71,2.71-2.71h32.07c1.5,0,2.71,1.21,2.71,2.71s-1.21,2.71-2.71,2.71Z"/>
  <path class="cls-1" d="M40.63,26.72v-9.72c0-.41.34-.75.75-.75h17.25c.41,0,.75.34.75.75v9.72h3.75v-10.91c0-1.83-1.48-3.31-3.31-3.31h-19.63c-1.83,0-3.31,1.48-3.31,3.31v10.91h3.75Z"/>
</svg>