<?xml version="1.0" encoding="UTF-8"?>
<svg id="Layer_1" data-name="Layer 1" xmlns="http://www.w3.org/2000/svg" viewBox="0 0 100 100">
  <defs>
    <style>
      .cls-1 {
        stroke: #000;
        stroke-miterlimit: 10;
      }

      .cls-1, .cls-2 {
        fill: #000;
      }

      .cls-2 {
        stroke-width: 0px;
      }
    </style>
  </defs>
  <rect class="cls-2" x="12.5" y="42.93" width="16.37" height="39.42" rx="8.19" ry="8.19"/>
  <path class="cls-2" d="M61.36,38.13c1.08-4.28,2.42-13.36,1.91-17.81l-.02-.17c.23-3.82-2.33-7.1-5.71-7.3-2.51-.15-4.86,1.46-5.91,4.06-2.78,6.87-5.99,13.57-9.99,19.8-5.26,8.19-9.01,11.23-9.01,11.4l-.21,29.88c-.54.93,24.96,8,39.67,9.17,7.3.58,10.59-27.29,10.59-27.29.09-.62.46-1.16,1-1.46h0c1.64-.9-1.11-16.21-.78-18.06,1.78-9.8-21.9-.76-21.53-2.23Z"/>
  <ellipse class="cls-1" cx="74.62" cy="69.6" rx="10.34" ry="10.35"/>
  <ellipse class="cls-1" cx="72.96" cy="76.49" rx="10.34" ry="10.35"/>
  <ellipse class="cls-1" cx="75.79" cy="60.06" rx="10.34" ry="10.35"/>
  <ellipse class="cls-1" cx="77.16" cy="46.14" rx="10.34" ry="10.35"/>
</svg>