<?xml version="1.0" encoding="UTF-8"?>
<svg id="Layer_1" data-name="Layer 1" xmlns="http://www.w3.org/2000/svg" viewBox="0 0 100 100">
  <defs>
    <style>
      .cls-1 {
        fill: #000;
        stroke-width: 0px;
      }
    </style>
  </defs>
  <path class="cls-1" d="M81.93,34.3c-3.45-3.44-12.79-12.79-16.23-16.23-.74-.74-.65-1.96.19-2.58,5.21-3.87,12.61-3.45,17.34,1.28,4.73,4.73,5.16,12.13,1.28,17.34-.62.84-1.84.92-2.58.19Z"/>
  <path class="cls-1" d="M60.45,20.73L18.48,62.7c-.77.77-1.32,1.72-1.6,2.76l-3.79,13.91c-1.25,4.58,2.95,8.78,7.53,7.53l13.91-3.79c1.04-.28,2-.84,2.76-1.6l41.97-41.97c.67-.67.67-1.75,0-2.42l-16.41-16.41c-.67-.67-1.75-.67-2.42,0Z"/>
</svg>