<?xml version="1.0" encoding="UTF-8"?>
<svg id="Layer_1" data-name="Layer 1" xmlns="http://www.w3.org/2000/svg" viewBox="0 0 100 100">
  <defs>
    <style>
      .cls-1 {
        fill: #000;
        stroke-width: 0px;
      }
    </style>
  </defs>
  <circle class="cls-1" cx="59.04" cy="82.49" r="3.75"/>
  <g>
    <rect class="cls-1" x="61.25" y="27.5" width="7.5" height="37.22" rx="3.75" ry="3.75"/>
    <path class="cls-1" d="M50,12.5c-20.71,0-37.5,16.79-37.5,37.5s16.79,37.5,37.5,37.5c3.4,0,6.69-.46,9.83-1.31-1.67-2-2.09-4.95-1.27-7.44-2.71.81-5.58,1.25-8.56,1.25-16.57,0-30-13.43-30-30s13.43-30,30-30,30,13.43,30,30c0,.04,0,.07,0,.11.53-.11,1.09-.17,1.69-.17h1.19c.18,0,.34.02.51.03.54,0,1.08-.02,1.63-.03.92-.02,1.74.1,2.48.34,0-.09,0-.18,0-.27,0-20.71-16.79-37.5-37.5-37.5Z"/>
    <rect class="cls-1" x="80" y="48.42" width="7.5" height="8.67"/>
    <g>
      <path class="cls-1" d="M80,45.37v14.52h-.67c-.95,1.76-2.81,2.95-4.95,2.95s-4-1.19-4.95-2.95h-.68v-14.52c-4.43,2.11-7.5,6.61-7.5,11.84,0,7.25,5.88,13.12,13.12,13.12s13.12-5.88,13.12-13.12c0-5.23-3.07-9.74-7.5-11.84Z"/>
      <path class="cls-1" d="M68.75,59.89h.68c-.43-.8-.68-1.71-.68-2.67v2.67Z"/>
      <path class="cls-1" d="M80,59.89v-2.67c0,.97-.24,1.88-.67,2.67h.67Z"/>
    </g>
    <path class="cls-1" d="M49.25,29.38c-10.77,0-19.5,9.23-19.5,20.62s8.73,20.62,19.5,20.62,19.5-9.23,19.5-20.62-8.73-20.62-19.5-20.62ZM49.25,63.12c-6.63,0-12-5.88-12-13.12s5.37-13.12,12-13.12,12,5.88,12,13.12-5.37,13.12-12,13.12Z"/>
  </g>
</svg>