<?xml version="1.0" encoding="UTF-8"?>
<svg id="Layer_1" data-name="Layer 1" xmlns="http://www.w3.org/2000/svg" viewBox="0 0 100 100">
  <defs>
    <style>
      .cls-1 {
        fill: #000;
        stroke-width: 0px;
      }
    </style>
  </defs>
  <g>
    <g>
      <rect class="cls-1" x="75.24" y="12.48" width="7.5" height="22.5" rx="3.75" ry="3.75" transform="translate(.1 -.34) rotate(.25)"/>
      <rect class="cls-1" x="67.7" y="19.95" width="7.5" height="22.5" rx="3.75" ry="3.75" transform="translate(102.96 -40.12) rotate(90.25)"/>
    </g>
    <g>
      <path class="cls-1" d="M79.99,50.29c-.11,10.69-5.93,20.98-16.07,26.3-14.68,7.69-32.81,2.02-40.49-12.65-7.69-14.68-2.02-32.81,12.65-40.49,12.84-6.73,28.33-3.23,37.15,7.58,1.26,1.54,7.42-2.77,5.86-4.68-11.02-13.57-30.41-17.97-46.49-9.54-18.35,9.61-25.43,32.27-15.82,50.62,9.61,18.34,32.27,25.43,50.62,15.82,12.69-6.65,19.99-19.55,20.1-32.94h-7.51Z"/>
      <path class="cls-1" d="M79.04,42.49s0,.02,0,.03c0-.01,0-.02,0-.03Z"/>
    </g>
  </g>
  <circle class="cls-1" cx="83.72" cy="50.08" r="3.78"/>
</svg>