<?xml version="1.0" encoding="UTF-8"?>
<svg id="Layer_1" data-name="Layer 1" xmlns="http://www.w3.org/2000/svg" viewBox="0 0 100 100">
  <defs>
    <style>
      .cls-1 {
        fill: #000;
        stroke-width: 0px;
      }
    </style>
  </defs>
  <path class="cls-1" d="M29.4,76.25h50.6V23.75c0-6.21-5.04-11.25-11.25-11.25H31.25c-6.21,0-11.25,5.04-11.25,11.25v52.5c0,6.21,5.04,11.25,11.25,11.25h44.57c.13,0,.24,0,.35,0,.03,0,.05,0,.07,0,.12,0,.22-.02.34-.03.02,0,.04,0,.05,0,1.89-.2,3.36-1.77,3.36-3.71s-1.56-3.61-3.53-3.73c0,0,0-.02,0-.02H29.4c-1.04,0-1.87-.84-1.87-1.87s.84-1.87,1.87-1.87ZM28.54,23.95c0-1.22.72-2.31,1.69-2.43,1.12-.13,2.06.96,2.06,2.33v41.96c0,1.22-.72,2.31-1.69,2.43-1.12.13-2.06-.96-2.06-2.33V23.95Z"/>
</svg>