<?xml version="1.0" encoding="UTF-8"?>
<svg id="Layer_1" data-name="Layer 1" xmlns="http://www.w3.org/2000/svg" viewBox="0 0 100 100">
  <defs>
    <style>
      .cls-1 {
        fill: #000;
        stroke-width: 0px;
      }
    </style>
  </defs>
  <path class="cls-1" d="M76.25,12.5H23.75c-6.21,0-11.25,5.04-11.25,11.25v52.5c0,6.21,5.04,11.25,11.25,11.25h52.5c6.21,0,11.25-5.04,11.25-11.25V23.75c0-6.21-5.04-11.25-11.25-11.25ZM80,71c0,4.97-4.03,9-9,9H29c-4.97,0-9-4.03-9-9V29c0-4.97,4.03-9,9-9h42c4.97,0,9,4.03,9,9v42Z"/>
  <rect class="cls-1" x="51.87" y="23.75" width="24.37" height="24.37" rx="7.87" ry="7.87"/>
  <rect class="cls-1" x="23.75" y="23.75" width="24.37" height="24.37" rx="7.87" ry="7.87"/>
  <rect class="cls-1" x="23.75" y="51.87" width="24.37" height="24.37" rx="7.87" ry="7.87"/>
  <rect class="cls-1" x="51.87" y="51.87" width="24.37" height="24.37" rx="7.87" ry="7.87"/>
</svg>