<?xml version="1.0" encoding="UTF-8"?>
<svg id="Layer_1" data-name="Layer 1" xmlns="http://www.w3.org/2000/svg" viewBox="0 0 100 100">
  <defs>
    <style>
      .cls-1 {
        fill: #000;
        stroke-width: 0px;
      }
    </style>
  </defs>
  <path class="cls-1" d="M42.44,77.65c-3.79,3.6-9.77,3.55-13.48-.17-3.72-3.72-3.76-9.7-.17-13.48l-5.3-5.3c-6.53,6.72-6.48,17.45.17,24.09,6.64,6.64,17.37,6.69,24.09.17l-5.3-5.3Z"/>
  <g>
    <rect class="cls-1" x="57.17" y="37.97" width="7.5" height="53.01" rx="3.75" ry="3.75" transform="translate(58.41 153.14) rotate(-135)"/>
    <rect class="cls-1" x="49.01" y="29.81" width="7.5" height="53.01" rx="3.75" ry="3.75" transform="translate(50.25 133.44) rotate(-135)"/>
    <rect class="cls-1" x="38.16" y="19.05" width="7.5" height="53.01" rx="3.75" ry="3.75" transform="translate(39.34 107.4) rotate(-135)"/>
    <rect class="cls-1" x="30" y="10.89" width="7.5" height="53.01" rx="3.75" ry="3.75" transform="translate(31.18 87.7) rotate(-135)"/>
  </g>
  <g>
    <path class="cls-1" d="M52.34,24.12c6.03-5.93,15.73-5.91,21.72.09,5.99,5.99,6.02,15.69.09,21.72l5.31,5.31c8.86-8.96,8.83-23.41-.09-32.33-8.92-8.92-23.37-8.95-32.33-.09l5.31,5.31Z"/>
    <path class="cls-1" d="M59.82,32.95s0,0,.01-.01c1.52-1.52,3.98-1.52,5.5,0,1.52,1.52,1.52,3.98,0,5.5,0,0,0,0-.01.01l5.3,5.3s0,0,.01-.01c4.45-4.45,4.45-11.66,0-16.11-4.45-4.45-11.66-4.45-16.11,0,0,0,0,0-.01.01l5.3,5.3Z"/>
  </g>
</svg>