<?xml version="1.0" encoding="UTF-8"?>
<svg id="Layer_1" data-name="Layer 1" xmlns="http://www.w3.org/2000/svg" viewBox="0 0 100 100">
  <defs>
    <style>
      .cls-1 {
        fill: #000;
        stroke-width: 0px;
      }
    </style>
  </defs>
  <path class="cls-1" d="M83.75,26.07H16.41c-1.96,0-3.71-1.43-3.89-3.38-.21-2.24,1.54-4.12,3.73-4.12h67.34c1.96,0,3.71,1.43,3.89,3.38.21,2.24-1.54,4.12-3.73,4.12Z"/>
  <g>
    <path class="cls-1" d="M52.02,28.93h20.83v30.83c0,3.68-2.99,6.67-6.67,6.67h-7.5c-3.68,0-6.67-2.99-6.67-6.67v-30.83h0Z"/>
    <path class="cls-1" d="M27.15,28.93h20.83v45.83c0,3.68-2.99,6.67-6.67,6.67h-7.5c-3.68,0-6.67-2.99-6.67-6.67V28.93h0Z"/>
  </g>
</svg>