<?xml version="1.0" encoding="UTF-8"?>
<svg id="Layer_1" data-name="Layer 1" xmlns="http://www.w3.org/2000/svg" viewBox="0 0 100 100">
  <defs>
    <style>
      .cls-1 {
        fill: #000;
        stroke-width: 0px;
      }
    </style>
  </defs>
  <rect class="cls-1" x="17.94" y="12.81" width="29.39" height="19.5" rx="5" ry="5"/>
  <rect class="cls-1" x="52.67" y="34.79" width="29.39" height="19.5" rx="5" ry="5"/>
  <path class="cls-1" d="M78.31,46.34v-2.76c0-1.31-1.06-2.37-2.37-2.37h-37.18c-1.31,0-2.37-1.06-2.37-2.37v-7.08c0-1.31-1.06-2.37-2.37-2.37h-2.76c-1.31,0-2.37,1.06-2.37,2.37v47.05h0c0,1.31,1.06,2.37,2.37,2.37h44.68c1.31,0,2.37-1.06,2.37-2.37v-2.76c0-1.31-1.06-2.37-2.37-2.37h-37.18c-1.31,0-2.37-1.06-2.37-2.37v-22.61h39.55c1.31,0,2.37-1.06,2.37-2.37Z"/>
  <rect class="cls-1" x="52.67" y="67.68" width="29.39" height="19.5" rx="5" ry="5"/>
</svg>