<?xml version="1.0" encoding="UTF-8"?>
<svg id="Layer_1" data-name="Layer 1" xmlns="http://www.w3.org/2000/svg" viewBox="0 0 100 100">
  <defs>
    <style>
      .cls-1 {
        fill: #000;
        stroke-width: 0px;
      }
    </style>
  </defs>
  <g>
    <rect class="cls-1" x="17.46" y="22.06" width="65.08" height="7.5" rx="3.75" ry="3.75"/>
    <path class="cls-1" d="M42.66,25c-.07-.41-.11-.82-.11-1.25,0-4.14,3.36-7.5,7.5-7.5s7.5,3.36,7.5,7.5c0,.43-.04.84-.11,1.25h3.79c.05-.41.07-.83.07-1.25,0-6.21-5.04-11.25-11.25-11.25s-11.25,5.04-11.25,11.25c0,.42.03.84.07,1.25h3.79Z"/>
  </g>
  <path class="cls-1" d="M22.71,30.65v48.51c0,4.6,3.73,8.33,8.33,8.33h37.92c4.6,0,8.33-3.73,8.33-8.33V30.65H22.71ZM40.39,73.65c0,1.04-.84,1.87-1.87,1.87s-1.87-.84-1.87-1.87v-29.15c0-1.04.84-1.87,1.87-1.87s1.87.84,1.87,1.87v29.15ZM51.87,73.65c0,1.04-.84,1.87-1.87,1.87s-1.87-.84-1.87-1.87v-29.15c0-1.04.84-1.87,1.87-1.87s1.87.84,1.87,1.87v29.15ZM63.36,73.65c0,1.04-.84,1.87-1.87,1.87s-1.87-.84-1.87-1.87v-29.15c0-1.04.84-1.87,1.87-1.87s1.87.84,1.87,1.87v29.15Z"/>
</svg>