<?xml version="1.0" encoding="UTF-8"?>
<svg id="Layer_1" data-name="Layer 1" xmlns="http://www.w3.org/2000/svg" viewBox="0 0 100 100">
  <defs>
    <style>
      .cls-1 {
        fill: #000;
        stroke-width: 0px;
      }
    </style>
  </defs>
  <path class="cls-1" d="M50,12.5c-20.71,0-37.5,16.79-37.5,37.5s16.79,37.5,37.5,37.5,37.5-16.79,37.5-37.5S70.71,12.5,50,12.5ZM65.03,54.47l-13.43,13.43c-.16.24-.38.44-.63.59-.26.18-.58.27-.88.26-.02,0-.04,0-.06,0-.01,0-.02,0-.03,0-.01,0-.02,0-.03,0-.02,0-.04,0-.06,0-.31.01-.62-.07-.88-.26-.25-.15-.47-.35-.63-.59l-13.43-13.43c-.57-.57-.57-1.49,0-2.05l.6-.6c.57-.57,1.49-.57,2.05,0l10.47,10.47v-29.16c0-1.04.84-1.87,1.87-1.87.01,0,.02,0,.03,0,.01,0,.02,0,.03,0,1.04,0,1.87.84,1.87,1.87v29.16l10.47-10.47c.57-.57,1.49-.57,2.05,0l.6.6c.57.57.57,1.49,0,2.05Z"/>
</svg>