<?xml version="1.0" encoding="UTF-8"?>
<svg id="Layer_1" data-name="Layer 1" xmlns="http://www.w3.org/2000/svg" viewBox="0 0 100 100">
  <defs>
    <style>
      .cls-1 {
        fill: #000;
        stroke-width: 0px;
      }
    </style>
  </defs>
  <path class="cls-1" d="M77.36,14.08H20.38c-7.98,0-12.5,9.13-7.67,15.48l23.76,31.23v18.23c0,1.52.92,2.89,2.33,3.47l15.44,6.32c2.47,1.01,5.17-.8,5.17-3.47v-23.79l25.11-33.01c4.51-5.93.28-14.45-7.16-14.45ZM73.58,26.74l-17.54,23.5-4.39,5.89v20.44c0,1.65-1.68,2.76-3.19,2.11l-2.91-1.25c-.84-.36-1.39-1.19-1.39-2.11v-6.26s0-13.7,0-13.7l-4.08-5.36-17.67-23.24c-.97-1.28-.06-3.12,1.54-3.12h48.08c1.6,0,2.51,1.82,1.56,3.1Z"/>
</svg>