<?xml version="1.0" encoding="UTF-8"?>
<svg id="Layer_1" data-name="Layer 1" xmlns="http://www.w3.org/2000/svg" viewBox="0 0 100 100">
  <defs>
    <style>
      .cls-1 {
        fill: #000;
        stroke-width: 0px;
      }
    </style>
  </defs>
  <path class="cls-1" d="M77.53,59.85c0-1.19-.08-2.37-.23-3.52,0,0-.04-.39-.07-.51-.81-4.17-2.45-9.22-6.08-15.86-5.76-10.53-17.85-25.59-17.85-25.59-.84-1.08-2.01-1.71-3.19-1.84v-.03s-.08,0-.12.01c-.04,0-.08-.01-.12-.01v.03c-1.17.13-2.34.76-3.19,1.84,0,0-12.09,15.05-17.85,25.59-3.63,6.64-5.26,11.69-6.08,15.86-.02.13-.07.51-.07.51-.15,1.15-.23,2.33-.23,3.52,0,15.19,12.25,27.51,27.41,27.64h0s.08,0,.12,0c.04,0,.08,0,.12,0h0c15.16-.13,27.41-12.46,27.41-27.65Z"/>
</svg>