<?xml version="1.0" encoding="UTF-8"?>
<svg id="Layer_1" data-name="Layer 1" xmlns="http://www.w3.org/2000/svg" viewBox="0 0 100 100">
  <defs>
    <style>
      .cls-1 {
        fill: #000;
        stroke-width: 0px;
      }
    </style>
  </defs>
  <path class="cls-1" d="M83.75,73.93H16.41c-1.96,0-3.71,1.43-3.89,3.38-.21,2.24,1.54,4.12,3.73,4.12h67.34c1.96,0,3.71-1.43,3.89-3.38.21-2.24-1.54-4.12-3.73-4.12Z"/>
  <g>
    <path class="cls-1" d="M58.69,33.57h7.5c3.68,0,6.67,2.99,6.67,6.67v30.83h-20.83v-30.83c0-3.68,2.99-6.67,6.67-6.67Z"/>
    <path class="cls-1" d="M33.81,18.57h7.5c3.68,0,6.67,2.99,6.67,6.67v45.83h-20.83V25.24c0-3.68,2.99-6.67,6.67-6.67Z"/>
  </g>
</svg>